<?xml version="1.0" encoding="UTF-8" standalone="no"?>
<!-- Created with Inkscape (http://www.inkscape.org/) -->

<svg
   version="1.1"
   id="svg2"
   xml:space="preserve"
   width="457.586"
   height="419.09799"
   viewBox="0 0 457.586 419.09799"
   sodipodi:docname="LT_binary_system_WD_P_overview.svg"
   inkscape:version="1.1.2 (0a00cf5339, 2022-02-04)"
   xmlns:inkscape="http://www.inkscape.org/namespaces/inkscape"
   xmlns:sodipodi="http://sodipodi.sourceforge.net/DTD/sodipodi-0.dtd"
   xmlns="http://www.w3.org/2000/svg"
   xmlns:svg="http://www.w3.org/2000/svg"><defs
     id="defs6"><clipPath
       clipPathUnits="userSpaceOnUse"
       id="clipPath16"><path
         d="M 0,0.028 H 385.171 V 355.69 H 0 Z"
         clip-rule="evenodd"
         id="path14" /></clipPath></defs><sodipodi:namedview
     id="namedview4"
     pagecolor="#ffffff"
     bordercolor="#666666"
     borderopacity="1.0"
     inkscape:pageshadow="2"
     inkscape:pageopacity="0.0"
     inkscape:pagecheckerboard="0"
     showgrid="false"
     inkscape:zoom="2.001843"
     inkscape:cx="226.54124"
     inkscape:cy="180.08405"
     inkscape:window-width="1920"
     inkscape:window-height="1008"
     inkscape:window-x="0"
     inkscape:window-y="0"
     inkscape:window-maximized="1"
     inkscape:current-layer="svg2" /><g
     id="g8"
     inkscape:label="LT_binary_system_WD_P_overview"
     transform="matrix(1.3333333,0,0,-1.3333333,0,474.25512)"
     inkscape:groupmode="layer"><rect
       style="fill:#f0f8ff;fill-opacity:1;stroke-width:6.95502;stroke-linecap:round;stroke-linejoin:round"
       id="rect4271"
       width="343.18951"
       height="314.32349"
       x="1.7763568e-15"
       y="-355.69135"
       transform="scale(1,-1)" /><g
       id="g10"
       transform="translate(-20.849116,21.048349)"><g
         id="g12"
         clip-path="url(#clipPath16)"><path
           d="m 192.189,310.705 -33.591,-35.461 c -0.113,-0.114 -0.17,-0.284 -0.198,-0.425 v -0.057 c 0.028,-0.17 0.085,-0.34 0.227,-0.454 0.113,-0.113 0.283,-0.17 0.425,-0.198 h 0.028 c 0.17,0.028 0.34,0.085 0.482,0.227 l 33.591,35.433 z"
           style="fill:#f6b093;fill-opacity:1;fill-rule:evenodd;stroke:none"
           id="path20" /><path
           d="m 196.611,314.39 -6.378,-1.899 4.819,-4.564 z"
           style="fill:#f6b093;fill-opacity:1;fill-rule:evenodd;stroke:none"
           id="path22" /><g
           id="g24"><path
             d="m 238.167,277.143 c 0.057,-2.353 -20.891,-5.443 -41.074,-5.981 -20.183,-0.539 -41.131,-0.057 -41.187,2.239 -0.086,2.325 20.806,5.641 40.988,6.18 20.183,0.51 41.216,-0.114 41.273,-2.438 z"
             style="fill:none;stroke:#2a7196;stroke-width:0.65195;stroke-linecap:square;stroke-linejoin:miter;stroke-miterlimit:10;stroke-dasharray:2.63617, 1.30391, 0.73699, 1.30391;stroke-dashoffset:0;stroke-opacity:1"
             id="path26" /></g><g
           id="g28"><path
             d="m 196.554,136.63 166.734,-0.908"
             style="fill:none;stroke:#231f20;stroke-width:0.3118;stroke-linecap:butt;stroke-linejoin:miter;stroke-miterlimit:10;stroke-dasharray:2.97632, 2.97632;stroke-dashoffset:0;stroke-opacity:1"
             id="path30" /></g><g
           id="g32"><path
             d="M 196.611,333.893 V 49.351"
             style="fill:none;stroke:#231f20;stroke-width:0.3118;stroke-linecap:butt;stroke-linejoin:miter;stroke-miterlimit:10;stroke-dasharray:2.97632, 2.97632;stroke-dashoffset:0;stroke-opacity:1"
             id="path34" /></g><g
           id="g36"><path
             d="m 145.871,35.178 50.825,101.225"
             style="fill:none;stroke:#a6216a;stroke-width:0.99211;stroke-linecap:round;stroke-linejoin:round;stroke-miterlimit:10;stroke-dasharray:2.97632, 2.97632;stroke-dashoffset:0;stroke-opacity:1"
             id="path38" /></g><path
           d="m 56.58,99.042 c -5.868,22.054 52.327,56.636 129.911,77.216 77.641,20.579 145.304,19.361 151.144,-2.693 C 343.502,151.511 285.335,116.9 207.694,96.349 130.082,75.77 62.419,76.989 56.58,99.042 Z"
           style="fill:#e2e2e8;fill-opacity:1;fill-rule:evenodd;stroke:none"
           id="path40" /><g
           id="g42"><path
             d="m 56.58,99.042 c -5.868,22.054 52.327,56.636 129.911,77.216 77.641,20.579 145.304,19.361 151.144,-2.693 C 343.502,151.511 285.335,116.9 207.694,96.349 130.082,75.77 62.419,76.989 56.58,99.042 Z"
             style="fill:none;stroke:#231f20;stroke-width:0.65195;stroke-linecap:square;stroke-linejoin:miter;stroke-miterlimit:3.8637;stroke-dasharray:none;stroke-opacity:1"
             id="path44" /></g><g
           id="g46"><path
             d="M 83.169,134.135 72.057,125.688"
             style="fill:none;stroke:#231f20;stroke-width:0.65195;stroke-linecap:round;stroke-linejoin:round;stroke-miterlimit:10;stroke-dasharray:none;stroke-opacity:1"
             id="path48" /></g><path
           d="m 73.587,124.469 -5.584,-1.899 3.317,4.904 z"
           style="fill:#231f20;fill-opacity:1;fill-rule:evenodd;stroke:none"
           id="path50" /><g
           id="g52"><path
             d="m 97.313,82.091 16.044,-0.113"
             style="fill:none;stroke:#231f20;stroke-width:0.65195;stroke-linecap:round;stroke-linejoin:round;stroke-miterlimit:10;stroke-dasharray:none;stroke-opacity:1"
             id="path54" /></g><path
           d="m 112.876,83.877 5.612,-1.928 -5.612,-1.814 z"
           style="fill:#231f20;fill-opacity:1;fill-rule:evenodd;stroke:none"
           id="path56" /><g
           id="g58"><path
             d="m 294.321,190.8 -17.943,-0.142"
             style="fill:none;stroke:#231f20;stroke-width:0.65195;stroke-linecap:round;stroke-linejoin:round;stroke-miterlimit:10;stroke-dasharray:none;stroke-opacity:1"
             id="path60" /></g><path
           d="m 276.888,188.787 -5.612,1.843 5.584,1.899 z"
           style="fill:#231f20;fill-opacity:1;fill-rule:evenodd;stroke:none"
           id="path62" /><g
           id="g64"><path
             d="m 276.236,120.472 18.142,9.099"
             style="fill:none;stroke:#231f20;stroke-width:0.65195;stroke-linecap:round;stroke-linejoin:round;stroke-miterlimit:10;stroke-dasharray:none;stroke-opacity:1"
             id="path66" /></g><path
           d="m 293.131,131.017 5.839,0.822 -4.195,-4.195 z"
           style="fill:#231f20;fill-opacity:1;fill-rule:evenodd;stroke:none"
           id="path68" /><g
           id="g70"><path
             d="m 176.428,216.623 c 18.851,10.772 42.662,8.618 61.37,-1.275"
             style="fill:none;stroke:#2a7196;stroke-width:0.65195;stroke-linecap:round;stroke-linejoin:round;stroke-miterlimit:10;stroke-dasharray:none;stroke-opacity:1"
             id="path72" /></g><path
           d="m 156.189,23.896 c 0.198,0.34 0.283,0.737 0.283,1.162 0,0.397 -0.056,0.737 -0.198,0.992 -0.227,0.369 -0.539,0.567 -1.02,0.567 -0.426,0 -0.737,-0.17 -0.936,-0.51 -0.17,-0.312 -0.283,-0.737 -0.283,-1.219 0.028,-0.425 0.113,-0.794 0.311,-1.106 0.199,-0.283 0.511,-0.425 0.908,-0.425 0.481,0 0.793,0.199 0.935,0.539 z m 0.454,2.806 c 0.368,-0.368 0.566,-0.879 0.566,-1.616 0,-0.652 -0.141,-1.219 -0.481,-1.672 -0.312,-0.425 -0.851,-0.652 -1.531,-0.652 -0.567,0 -1.021,0.17 -1.361,0.567 -0.34,0.397 -0.51,0.907 -0.51,1.559 0,0.737 0.17,1.275 0.51,1.701 0.369,0.425 0.822,0.623 1.418,0.623 0.538,0 1.02,-0.17 1.389,-0.51 z"
           style="fill:#231f20;fill-opacity:1;fill-rule:evenodd;stroke:none"
           id="path74" /><path
           d="m 160.639,23.896 c 0.17,0.283 0.255,0.68 0.255,1.19 0,0.425 -0.085,0.822 -0.283,1.106 -0.198,0.283 -0.482,0.425 -0.85,0.425 -0.312,0 -0.596,-0.113 -0.822,-0.369 -0.256,-0.226 -0.369,-0.651 -0.369,-1.19 0,-0.397 0.057,-0.709 0.17,-0.964 0.199,-0.453 0.539,-0.68 1.049,-0.68 0.368,0.028 0.652,0.17 0.85,0.482 z m -2.749,4.79 h 0.708 v -2.069 c 0.171,0.198 0.341,0.368 0.567,0.454 0.199,0.113 0.426,0.17 0.681,0.17 0.51,0 0.935,-0.17 1.275,-0.511 0.312,-0.368 0.482,-0.878 0.51,-1.615 0,-0.652 -0.17,-1.191 -0.481,-1.644 -0.312,-0.426 -0.766,-0.652 -1.333,-0.652 -0.311,0 -0.567,0.056 -0.793,0.226 -0.142,0.085 -0.284,0.227 -0.426,0.426 v -0.539 h -0.68 z"
           style="fill:#231f20;fill-opacity:1;fill-rule:evenodd;stroke:none"
           id="path76" /><path
           d="m 162.765,24.264 c 0.029,-0.227 0.085,-0.397 0.199,-0.538 0.17,-0.227 0.482,-0.312 0.935,-0.312 0.284,0 0.51,0.057 0.709,0.17 0.227,0.113 0.312,0.283 0.312,0.51 0,0.199 -0.085,0.312 -0.255,0.425 -0.085,0.057 -0.284,0.114 -0.596,0.199 l -0.595,0.113 c -0.368,0.085 -0.624,0.199 -0.794,0.312 -0.311,0.17 -0.482,0.454 -0.482,0.794 0,0.397 0.142,0.708 0.426,0.963 0.283,0.256 0.68,0.369 1.162,0.369 0.652,0 1.134,-0.17 1.417,-0.539 0.17,-0.226 0.255,-0.482 0.255,-0.737 l -0.652,-0.028 c -0.028,0.17 -0.085,0.312 -0.198,0.454 -0.142,0.17 -0.425,0.255 -0.879,0.255 -0.255,0 -0.482,-0.057 -0.595,-0.17 -0.142,-0.085 -0.227,-0.227 -0.227,-0.397 0,-0.17 0.113,-0.312 0.284,-0.425 0.113,-0.057 0.255,-0.114 0.481,-0.199 l 0.482,-0.113 c 0.511,-0.114 0.879,-0.227 1.049,-0.34 0.255,-0.17 0.397,-0.454 0.397,-0.851 0,-0.368 -0.113,-0.68 -0.397,-0.964 -0.283,-0.255 -0.737,-0.396 -1.332,-0.396 -0.624,0 -1.077,0.141 -1.332,0.396 -0.284,0.284 -0.426,0.624 -0.426,1.049 z"
           style="fill:#231f20;fill-opacity:1;fill-rule:evenodd;stroke:none"
           id="path78" /><path
           d="m 169.172,25.426 c -0.029,0.341 -0.085,0.567 -0.199,0.766 -0.198,0.34 -0.51,0.482 -0.964,0.482 -0.311,0 -0.566,-0.114 -0.793,-0.34 -0.199,-0.227 -0.312,-0.539 -0.34,-0.936 z m -0.255,1.673 c 0.283,-0.142 0.481,-0.312 0.623,-0.539 0.142,-0.198 0.255,-0.453 0.284,-0.737 0.056,-0.226 0.085,-0.51 0.085,-0.935 l -3.033,-0.028 c 0.028,-0.426 0.113,-0.766 0.311,-1.021 0.17,-0.255 0.482,-0.368 0.851,-0.368 0.368,0 0.652,0.113 0.879,0.368 0.113,0.142 0.198,0.283 0.255,0.482 h 0.68 c -0.028,-0.142 -0.085,-0.312 -0.17,-0.51 -0.113,-0.199 -0.227,-0.34 -0.34,-0.454 -0.227,-0.227 -0.482,-0.368 -0.794,-0.425 -0.17,-0.057 -0.34,-0.085 -0.567,-0.085 -0.51,0 -0.935,0.198 -1.304,0.567 -0.368,0.368 -0.567,0.907 -0.595,1.587 0,0.652 0.198,1.247 0.567,1.644 0.368,0.426 0.822,0.652 1.417,0.652 0.284,0 0.567,-0.056 0.851,-0.198 z"
           style="fill:#231f20;fill-opacity:1;fill-rule:evenodd;stroke:none"
           id="path80" /><path
           d="m 170.901,27.212 0.68,0.029 0.028,-0.737 c 0.029,0.141 0.171,0.311 0.397,0.51 0.199,0.198 0.454,0.312 0.709,0.312 0.028,0 0.057,0 0.085,0 0.028,0 0.085,0 0.142,0 l 0.028,-0.766 c -0.057,0.029 -0.085,0.029 -0.113,0.029 -0.057,0 -0.085,0 -0.114,0 -0.368,0 -0.623,-0.114 -0.822,-0.341 -0.198,-0.226 -0.283,-0.481 -0.283,-0.793 l 0.028,-2.41 -0.737,-0.028 z"
           style="fill:#231f20;fill-opacity:1;fill-rule:evenodd;stroke:none"
           id="path82" /><path
           d="m 173.82,27.241 1.134,-3.402 1.163,3.43 h 0.765 l -1.559,-4.195 -0.766,-0.029 -1.559,4.196 z"
           style="fill:#231f20;fill-opacity:1;fill-rule:evenodd;stroke:none"
           id="path84" /><path
           d="m 180.312,25.511 c -0.029,0.341 -0.085,0.567 -0.199,0.766 -0.198,0.34 -0.51,0.51 -0.963,0.482 -0.312,0 -0.567,-0.114 -0.794,-0.34 -0.199,-0.227 -0.312,-0.539 -0.34,-0.908 z m -0.255,1.673 c 0.283,-0.142 0.482,-0.312 0.623,-0.539 0.142,-0.198 0.255,-0.453 0.284,-0.737 0.056,-0.198 0.085,-0.51 0.085,-0.935 l -3.033,-0.028 c 0,-0.426 0.113,-0.766 0.312,-1.021 0.17,-0.255 0.453,-0.368 0.85,-0.368 0.368,0 0.652,0.113 0.879,0.368 0.113,0.142 0.198,0.312 0.255,0.482 h 0.68 c -0.028,-0.142 -0.085,-0.312 -0.17,-0.51 -0.113,-0.17 -0.227,-0.34 -0.34,-0.454 -0.227,-0.227 -0.482,-0.368 -0.794,-0.425 -0.17,-0.057 -0.34,-0.057 -0.567,-0.085 -0.51,0 -0.964,0.198 -1.304,0.567 -0.397,0.368 -0.567,0.907 -0.595,1.587 0,0.681 0.17,1.248 0.567,1.644 0.368,0.426 0.822,0.652 1.417,0.652 0.284,0 0.567,-0.056 0.851,-0.198 z"
           style="fill:#231f20;fill-opacity:1;fill-rule:evenodd;stroke:none"
           id="path86" /><path
           d="m 181.843,27.269 0.68,0.028 V 26.56 c 0.057,0.142 0.198,0.312 0.397,0.511 0.198,0.226 0.453,0.34 0.765,0.34 0,0 0.028,0 0.057,0 0.028,0 0.085,0 0.17,0 v -0.794 c -0.029,0.028 -0.085,0.028 -0.114,0.028 -0.028,0 -0.085,0 -0.113,0 -0.368,0 -0.652,-0.113 -0.85,-0.34 -0.17,-0.227 -0.255,-0.482 -0.255,-0.794 V 23.13 l -0.681,-0.028 z"
           style="fill:#231f20;fill-opacity:1;fill-rule:evenodd;stroke:none"
           id="path88" /><path
           d="m 246.954,170.192 c 0.057,-0.425 0.17,-0.709 0.34,-0.907 0.312,-0.369 0.823,-0.539 1.531,-0.511 0.454,0 0.794,0.029 1.049,0.142 0.51,0.17 0.765,0.51 0.765,0.992 0,0.312 -0.113,0.539 -0.368,0.681 -0.255,0.17 -0.652,0.283 -1.191,0.396 l -0.935,0.199 c -0.936,0.198 -1.559,0.425 -1.899,0.652 -0.596,0.397 -0.879,1.02 -0.879,1.842 0,0.766 0.255,1.418 0.822,1.928 0.567,0.51 1.389,0.794 2.494,0.794 0.936,0 1.701,-0.227 2.382,-0.709 0.652,-0.482 0.992,-1.162 1.048,-2.069 l -1.757,-0.029 c -0.028,0.511 -0.284,0.879 -0.709,1.106 -0.283,0.142 -0.652,0.198 -1.077,0.198 -0.482,0 -0.85,-0.085 -1.134,-0.283 -0.283,-0.199 -0.425,-0.454 -0.425,-0.794 0,-0.312 0.142,-0.538 0.425,-0.68 0.199,-0.085 0.567,-0.199 1.162,-0.34 l 1.503,-0.34 c 0.652,-0.171 1.19,-0.369 1.53,-0.624 0.511,-0.397 0.766,-0.992 0.766,-1.786 0.028,-0.765 -0.284,-1.417 -0.879,-1.956 -0.624,-0.51 -1.502,-0.794 -2.608,-0.794 -1.134,0 -2.012,0.227 -2.664,0.737 -0.652,0.511 -0.992,1.219 -0.992,2.126 z"
           style="fill:#ef6a45;fill-opacity:1;fill-rule:evenodd;stroke:none"
           id="path90" /><path
           d="m 255.713,168.548 c -0.028,0.141 -0.085,0.283 -0.17,0.425 -0.113,0.17 -0.312,0.227 -0.567,0.227 -0.368,0 -0.623,-0.17 -0.737,-0.539 -0.085,-0.198 -0.113,-0.453 -0.113,-0.765 0,-0.312 0.028,-0.539 0.113,-0.737 0.142,-0.34 0.369,-0.511 0.737,-0.511 0.255,0 0.426,0.086 0.539,0.227 0.113,0.142 0.17,0.312 0.198,0.539 h 1.134 c -0.028,-0.34 -0.141,-0.652 -0.368,-0.936 -0.369,-0.481 -0.851,-0.708 -1.531,-0.737 -0.652,0 -1.162,0.199 -1.474,0.596 -0.312,0.397 -0.482,0.907 -0.482,1.53 0,0.709 0.17,1.248 0.51,1.644 0.341,0.397 0.822,0.624 1.446,0.652 0.51,0 0.935,-0.113 1.304,-0.368 0.312,-0.227 0.51,-0.652 0.595,-1.247 z"
           style="fill:#ef6a45;fill-opacity:1;fill-rule:evenodd;stroke:none"
           id="path92" /><path
           d="m 198.992,323.461 1.786,0.028 0.057,-7.086 4.337,0.028 v -1.559 l -6.123,-0.028 z"
           style="fill:#212a5b;fill-opacity:1;fill-rule:evenodd;stroke:none"
           id="path94" /><path
           d="m 161.603,298.374 c 0.624,0.029 1.077,0.284 1.361,0.766 0.312,0.453 0.453,0.964 0.453,1.502 -0.028,0.312 -0.056,0.595 -0.113,0.822 -0.057,0.227 -0.142,0.425 -0.255,0.567 -0.085,0.142 -0.17,0.255 -0.284,0.369 -0.085,0.085 -0.17,0.17 -0.226,0.198 -0.17,0.142 -0.397,0.227 -0.681,0.227 -1.53,-0.028 -2.267,-0.794 -2.267,-2.353 0,-0.567 0.17,-1.077 0.51,-1.474 0.368,-0.397 0.879,-0.624 1.502,-0.624 z m -2.579,7.711 4.733,0.056 0.029,-0.878 -3.402,-0.029 v -0.028 l 2.126,-1.361 c 0.794,-0.51 1.333,-1.048 1.644,-1.559 0.255,-0.538 0.397,-1.077 0.397,-1.644 0,-0.822 -0.255,-1.531 -0.765,-2.154 -0.539,-0.624 -1.276,-0.936 -2.296,-0.964 -0.936,0 -1.673,0.284 -2.211,0.85 -0.539,0.539 -0.822,1.276 -0.851,2.155 0,1.871 0.964,2.919 2.892,3.09 v 0.028 l -2.296,1.587 z"
           style="fill:#ef6a45;fill-opacity:1;fill-rule:evenodd;stroke:none"
           id="path96" /><path
           d="m 167.698,299.877 c 0.283,-0.199 0.453,-0.595 0.51,-1.134 h -0.652 c -0.085,0.255 -0.17,0.454 -0.312,0.624 -0.142,0.17 -0.397,0.226 -0.709,0.226 -0.425,0 -0.737,-0.198 -0.935,-0.623 -0.113,-0.284 -0.17,-0.624 -0.17,-1.021 0,-0.425 0.113,-0.765 0.283,-1.049 0.17,-0.255 0.426,-0.425 0.794,-0.425 0.284,0 0.51,0.114 0.68,0.284 0.17,0.17 0.284,0.425 0.369,0.708 l 0.652,0.029 c -0.057,-0.539 -0.255,-0.936 -0.539,-1.219 -0.34,-0.255 -0.737,-0.397 -1.19,-0.397 -0.539,0 -0.964,0.198 -1.276,0.567 -0.312,0.425 -0.482,0.907 -0.482,1.502 -0.028,0.709 0.142,1.248 0.51,1.644 0.341,0.426 0.766,0.624 1.304,0.624 0.454,0 0.822,-0.113 1.163,-0.34 z"
           style="fill:#ef6a45;fill-opacity:1;fill-rule:evenodd;stroke:none"
           id="path98" /><g
           id="g100"><path
             d="m 275.244,92.012 c 4.139,8.533 -0.425,16.81 -3.458,21.118"
             style="fill:none;stroke:#231f20;stroke-width:0.65195;stroke-linecap:round;stroke-linejoin:round;stroke-miterlimit:10;stroke-dasharray:none;stroke-opacity:1"
             id="path102" /></g><path
           d="m 272.268,112.393 -0.766,-1.814 -0.085,0.029 -0.737,2.863 c -0.397,0.907 -0.793,1.785 -1.162,2.692 0.709,-0.652 1.446,-1.303 2.211,-1.927 l 2.495,-1.616 v -0.057 z"
           style="fill:#231f20;fill-opacity:1;fill-rule:evenodd;stroke:none"
           id="path104" /><g
           id="g106"><path
             d="m 196.668,136.374 135.467,35.915"
             style="fill:none;stroke:#2a7196;stroke-width:1.30391;stroke-linecap:round;stroke-linejoin:round;stroke-miterlimit:10;stroke-dasharray:none;stroke-opacity:1"
             id="path108" /></g><path
           d="m 330.633,175.011 6.576,-1.361 -5.045,-4.479 z"
           style="fill:#2e75b5;fill-opacity:1;fill-rule:evenodd;stroke:none"
           id="path110" /><path
           d="m 258.491,259.426 h 1.786 l 0.029,-3.543 3.316,3.6 h 2.324 l -3.515,-3.572 3.771,-5.045 -2.296,-0.029 -2.722,3.771 -0.85,-0.936 0.028,-2.863 -1.786,-0.028 z"
           style="fill:#a6206a;fill-opacity:1;fill-rule:evenodd;stroke:none"
           id="path112" /><g
           id="g114"><path
             d="m 234.652,174.104 4.762,-47.707"
             style="fill:none;stroke:#ef6a45;stroke-width:1.30391;stroke-linecap:round;stroke-linejoin:round;stroke-miterlimit:10;stroke-dasharray:1.30391, 2.63617, 1.30391, 2.63617;stroke-dashoffset:0;stroke-opacity:1"
             id="path116" /></g><g
           id="g118"><path
             d="m 196.668,136.403 42.746,-10.006"
             style="fill:none;stroke:#ef6a45;stroke-width:1.30391;stroke-linecap:round;stroke-linejoin:round;stroke-miterlimit:10;stroke-dasharray:1.30391, 2.63617, 1.30391, 2.63617;stroke-dashoffset:0;stroke-opacity:1"
             id="path120" /></g><g
           id="g122"><path
             d="m 149.641,316.488 10.261,-40.989"
             style="fill:none;stroke:#2a7196;stroke-width:1.30391;stroke-linecap:round;stroke-linejoin:round;stroke-miterlimit:10;stroke-dasharray:1.30391, 3.96843;stroke-dashoffset:0;stroke-opacity:1"
             id="path124" /></g><g
           id="g126"><path
             d="m 198.907,139.379 53.858,103.833"
             style="fill:none;stroke:#a6216a;stroke-width:0.99211;stroke-linecap:round;stroke-linejoin:round;stroke-miterlimit:10;stroke-dasharray:2.97632, 2.97632;stroke-dashoffset:0;stroke-opacity:1"
             id="path128" /></g><path
           d="m 255.77,240.321 -0.368,7.965 -6.719,-4.28 z"
           style="fill:#a6216a;fill-opacity:1;fill-rule:evenodd;stroke:none"
           id="path130" /><path
           d="m 154.12,269.801 1.786,0.029 0.056,-7.087 4.309,0.028 0.028,-1.53 -6.123,-0.057 z"
           style="fill:#2a7196;fill-opacity:1;fill-rule:evenodd;stroke:none"
           id="path132" /><path
           d="m 214.753,114.604 c 0.708,0.029 1.247,0.256 1.616,0.681 0.34,0.425 0.538,0.963 0.51,1.672 0,1.417 -0.737,2.211 -2.183,2.325 z m -1.106,4.649 c -1.445,-0.142 -2.182,-0.907 -2.154,-2.353 0,-0.68 0.198,-1.247 0.595,-1.644 0.369,-0.425 0.879,-0.623 1.588,-0.652 z m 0.029,-5.584 c -0.936,0 -1.701,0.283 -2.325,0.85 -0.652,0.539 -0.992,1.276 -0.992,2.268 -0.028,1.021 0.255,1.814 0.85,2.438 0.567,0.623 1.389,0.964 2.41,0.964 v 0.963 l 1.077,0.029 v -0.964 c 1.049,0 1.871,-0.312 2.495,-0.935 0.566,-0.624 0.85,-1.418 0.878,-2.438 0,-0.992 -0.312,-1.729 -0.935,-2.296 -0.652,-0.567 -1.446,-0.851 -2.381,-0.879 v -0.964 h -1.077 z"
           style="fill:#ef6a45;fill-opacity:1;fill-rule:evenodd;stroke:none"
           id="path134" /><path
           d="m 221.499,114.236 c 0.284,-0.199 0.482,-0.595 0.539,-1.134 h -0.681 c -0.028,0.255 -0.113,0.454 -0.283,0.624 -0.142,0.17 -0.368,0.226 -0.68,0.226 -0.454,0 -0.737,-0.198 -0.936,-0.623 -0.141,-0.284 -0.198,-0.624 -0.198,-1.049 0,-0.425 0.085,-0.765 0.283,-1.049 0.17,-0.255 0.454,-0.397 0.822,-0.397 0.284,0 0.511,0.085 0.681,0.255 0.17,0.171 0.283,0.426 0.34,0.709 h 0.652 c -0.057,-0.538 -0.255,-0.935 -0.567,-1.162 -0.284,-0.255 -0.68,-0.397 -1.162,-0.397 -0.511,0 -0.936,0.198 -1.304,0.567 -0.312,0.397 -0.482,0.879 -0.482,1.474 0,0.737 0.17,1.276 0.51,1.672 0.369,0.426 0.822,0.624 1.361,0.624 0.453,0 0.822,-0.113 1.105,-0.34 z"
           style="fill:#ef6a45;fill-opacity:1;fill-rule:evenodd;stroke:none"
           id="path136" /><g
           id="g138"><path
             d="M 140.683,41.017 140.117,21.43 154.063,34.639"
             style="fill:none;stroke:#231f20;stroke-width:0.99211;stroke-linecap:round;stroke-linejoin:round;stroke-miterlimit:10;stroke-dasharray:none;stroke-opacity:1"
             id="path140" /></g><g
           id="g142"><path
             d="m 140.428,32.598 c 2.807,0.765 5.783,-1.219 6.633,-4.422"
             style="fill:none;stroke:#231f20;stroke-width:0.99211;stroke-linecap:round;stroke-linejoin:round;stroke-miterlimit:10;stroke-dasharray:none;stroke-opacity:1"
             id="path144" /></g><g
           id="g146"><path
             d="m 160.129,186.009 -9.439,9.071"
             style="fill:none;stroke:#f06a44;stroke-width:0.65195;stroke-linecap:round;stroke-linejoin:round;stroke-miterlimit:10;stroke-dasharray:none;stroke-opacity:1"
             id="path148" /></g><path
           d="m 159.534,186.576 -1.928,-0.482 0.029,-0.085 2.749,-1.105 c 0.822,-0.511 1.644,-1.021 2.466,-1.531 -0.538,0.822 -1.077,1.644 -1.615,2.438 l -1.219,2.693 -0.057,0.028 z"
           style="fill:#f06a44;fill-opacity:1;fill-rule:evenodd;stroke:none"
           id="path150" /><g
           id="g152"><path
             d="m 196.668,136.374 34.242,36.142"
             style="fill:none;stroke:#ef6a45;stroke-width:1.30391;stroke-linecap:round;stroke-linejoin:round;stroke-miterlimit:10;stroke-dasharray:none;stroke-opacity:1"
             id="path154" /></g><path
           d="m 232.639,169.511 1.559,6.463 -6.378,-1.87 z"
           style="fill:#ef6a45;fill-opacity:1;fill-rule:evenodd;stroke:none"
           id="path156" /><g
           id="g158"><path
             d="m 196.696,136.374 -35.49,134.079"
             style="fill:none;stroke:#2a7196;stroke-width:1.30391;stroke-linecap:round;stroke-linejoin:round;stroke-miterlimit:10;stroke-dasharray:none;stroke-opacity:1"
             id="path160" /></g><path
           d="m 164.693,270.34 -4.706,4.734 -1.729,-6.435 z"
           style="fill:#2a7196;fill-opacity:1;fill-rule:evenodd;stroke:none"
           id="path162" /><g
           id="g164"><path
             d="m 196.668,136.403 15.675,-33.732"
             style="fill:none;stroke:#2a7196;stroke-width:1.30391;stroke-linecap:round;stroke-linejoin:round;stroke-miterlimit:10;stroke-dasharray:none;stroke-opacity:1"
             id="path166" /></g><path
           d="m 208.913,102.189 5.443,-3.855 0.567,6.633 z"
           style="fill:#2a7196;fill-opacity:1;fill-rule:evenodd;stroke:none"
           id="path168" /><g
           id="g170"><path
             d="m 196.724,138.33 -0.311,172.8"
             style="fill:none;stroke:#212a5b;stroke-width:1.47399;stroke-linecap:round;stroke-linejoin:round;stroke-miterlimit:10;stroke-dasharray:none;stroke-opacity:1"
             id="path172" /></g><path
           d="m 200.183,309.997 -3.742,6.491 -3.742,-6.491 z"
           style="fill:#212a5b;fill-opacity:1;fill-rule:evenodd;stroke:none"
           id="path174" /><g
           id="g176"><path
             d="m 238.167,177.704 c 0.057,-2.325 -21.118,-4.649 -41.301,-5.159 -20.183,-0.539 -40.904,1.87 -40.96,4.166 -0.086,2.325 20.551,3.686 40.733,4.224 20.183,0.539 41.471,-0.935 41.528,-3.231 z"
             style="fill:none;stroke:#ef6a45;stroke-width:0.65195;stroke-linecap:square;stroke-linejoin:miter;stroke-miterlimit:10;stroke-dasharray:2.63617, 1.30391, 0.73699, 1.30391;stroke-dashoffset:0;stroke-opacity:1"
             id="path178" /></g><g
           id="g180"><path
             d="m 170.022,288.113 c -2.665,3.175 -7.937,5.414 -14.116,4.337"
             style="fill:none;stroke:#ef6a45;stroke-width:0.65195;stroke-linecap:round;stroke-linejoin:round;stroke-miterlimit:10;stroke-dasharray:none;stroke-opacity:1"
             id="path182" /></g><path
           d="m 342.822,176.428 h -1.332 v 1.191 h 1.332 z m -1.928,-6.52 c 0.057,0 0.114,0 0.142,-0.028 0.029,0 0.057,0 0.085,0 0.114,0 0.227,0.028 0.284,0.113 0.056,0.057 0.085,0.17 0.085,0.341 v 5.47 h 1.332 v -5.47 c 0,-0.511 -0.085,-0.879 -0.312,-1.106 -0.198,-0.255 -0.595,-0.368 -1.162,-0.368 -0.057,0 -0.113,0 -0.17,0 -0.085,0 -0.17,0 -0.284,0 z"
           style="fill:#2a7196;fill-opacity:1;fill-rule:evenodd;stroke:none"
           id="path184" /><path
           d="m 215.603,93.118 h 1.332 v -4.961 h -1.332 z m 1.332,0.623 h -1.332 v 1.191 h 1.332 z"
           style="fill:#2a7196;fill-opacity:1;fill-rule:evenodd;stroke:none"
           id="path186" /><path
           d="m 246.699,83.48 c 0.199,0.425 0.312,0.879 0.312,1.361 0,0.453 -0.085,0.822 -0.227,1.105 -0.227,0.454 -0.623,0.68 -1.162,0.68 -0.51,0 -0.879,-0.198 -1.077,-0.566 -0.227,-0.397 -0.34,-0.851 -0.34,-1.389 0,-0.511 0.113,-0.936 0.34,-1.276 0.198,-0.369 0.567,-0.539 1.049,-0.539 0.538,0 0.907,0.227 1.105,0.624 z m 0.51,3.231 c 0.454,-0.425 0.681,-1.02 0.681,-1.842 0,-0.794 -0.199,-1.417 -0.567,-1.928 -0.425,-0.538 -0.992,-0.793 -1.814,-0.793 -0.652,0 -1.163,0.226 -1.559,0.68 -0.397,0.454 -0.596,1.077 -0.596,1.843 0,0.793 0.199,1.445 0.624,1.927 0.397,0.51 0.964,0.737 1.644,0.737 0.624,0 1.162,-0.198 1.587,-0.624 z"
           style="fill:#231f20;fill-opacity:1;fill-rule:evenodd;stroke:none"
           id="path188" /><path
           d="m 248.882,87.193 h 0.794 v -0.85 c 0.056,0.17 0.226,0.368 0.481,0.624 0.227,0.226 0.539,0.34 0.851,0.34 0.028,0 0.028,0 0.085,0 0.028,0 0.085,-0.029 0.17,-0.029 v -0.85 c -0.028,0 -0.085,0 -0.113,0 -0.057,0 -0.085,0.028 -0.142,0.028 -0.425,0 -0.737,-0.141 -0.964,-0.396 -0.198,-0.284 -0.312,-0.596 -0.312,-0.936 v -2.806 h -0.85 z"
           style="fill:#231f20;fill-opacity:1;fill-rule:evenodd;stroke:none"
           id="path190" /><path
           d="m 255.033,83.423 c 0.227,0.369 0.34,0.822 0.34,1.389 0,0.51 -0.113,0.936 -0.34,1.276 -0.227,0.34 -0.539,0.51 -0.964,0.51 -0.368,0 -0.737,-0.142 -1.02,-0.425 -0.284,-0.255 -0.425,-0.709 -0.425,-1.361 0,-0.453 0.056,-0.822 0.17,-1.105 0.226,-0.539 0.652,-0.794 1.247,-0.794 0.453,0 0.765,0.17 0.992,0.51 z m -3.146,5.613 h 0.793 v -2.438 c 0.17,0.255 0.397,0.425 0.652,0.539 0.255,0.113 0.539,0.198 0.822,0.198 0.624,0 1.106,-0.227 1.474,-0.624 0.397,-0.425 0.567,-1.048 0.567,-1.842 0,-0.765 -0.17,-1.417 -0.538,-1.928 -0.397,-0.538 -0.907,-0.793 -1.559,-0.793 -0.369,0 -0.681,0.085 -0.964,0.283 -0.17,0.085 -0.34,0.255 -0.51,0.539 v -0.652 h -0.737 z"
           style="fill:#231f20;fill-opacity:1;fill-rule:evenodd;stroke:none"
           id="path192" /><path
           d="m 257.131,87.165 h 0.85 v -4.847 h -0.85 z m 0,1.843 h 0.85 v -0.936 h -0.85 z"
           style="fill:#231f20;fill-opacity:1;fill-rule:evenodd;stroke:none"
           id="path194" /><path
           d="m 259.342,88.554 h 0.85 v -1.361 h 0.794 v -0.652 h -0.794 v -3.203 c 0,-0.17 0.057,-0.283 0.17,-0.34 0.085,-0.057 0.17,-0.057 0.34,-0.057 0.029,0 0.057,0 0.114,0 0.056,0 0.113,0 0.17,0.029 v -0.652 c -0.114,-0.029 -0.199,-0.057 -0.312,-0.057 -0.085,-0.028 -0.198,-0.028 -0.312,-0.028 -0.397,0 -0.652,0.085 -0.822,0.283 -0.113,0.199 -0.198,0.454 -0.198,0.766 v 3.259 h -0.652 v 0.652 h 0.652 z"
           style="fill:#231f20;fill-opacity:1;fill-rule:evenodd;stroke:none"
           id="path196" /><path
           d="m 262.658,83.055 c 0.17,-0.142 0.397,-0.227 0.624,-0.227 0.283,0 0.567,0.085 0.85,0.198 0.454,0.227 0.681,0.596 0.681,1.106 v 0.652 c -0.114,-0.057 -0.227,-0.113 -0.397,-0.17 -0.142,-0.029 -0.312,-0.057 -0.454,-0.085 l -0.51,-0.057 c -0.283,-0.057 -0.539,-0.113 -0.68,-0.198 -0.255,-0.142 -0.369,-0.369 -0.369,-0.681 0,-0.226 0.085,-0.425 0.255,-0.538 z m 1.729,2.182 c 0.199,0.029 0.312,0.114 0.397,0.256 0.029,0.056 0.057,0.17 0.057,0.311 0,0.284 -0.113,0.511 -0.312,0.624 -0.198,0.142 -0.482,0.198 -0.85,0.198 -0.425,0 -0.737,-0.113 -0.936,-0.34 -0.085,-0.17 -0.17,-0.34 -0.198,-0.595 h -0.765 c 0.028,0.624 0.226,1.049 0.595,1.276 0.368,0.226 0.822,0.34 1.332,0.34 0.567,0 1.021,-0.114 1.389,-0.312 0.34,-0.227 0.539,-0.567 0.539,-1.049 V 83.14 c 0,-0.085 0,-0.142 0.028,-0.199 0.057,-0.056 0.113,-0.085 0.227,-0.085 0.028,0 0.085,0 0.141,0 0.029,0.029 0.086,0.029 0.142,0.029 v -0.596 c -0.142,-0.028 -0.227,-0.056 -0.312,-0.085 -0.056,0 -0.141,0 -0.255,0 -0.283,0 -0.482,0.085 -0.623,0.312 -0.057,0.085 -0.114,0.255 -0.142,0.425 -0.17,-0.198 -0.397,-0.396 -0.709,-0.567 -0.312,-0.141 -0.652,-0.226 -1.02,-0.226 -0.482,0 -0.851,0.141 -1.134,0.397 -0.284,0.283 -0.425,0.623 -0.425,1.048 0,0.426 0.113,0.794 0.397,1.049 0.283,0.227 0.652,0.397 1.133,0.454 z"
           style="fill:#231f20;fill-opacity:1;fill-rule:evenodd;stroke:none"
           id="path198" /><path
           d="m 266.967,82.318 h 0.822 v 6.69 h -0.822 z"
           style="fill:#231f20;fill-opacity:1;fill-rule:evenodd;stroke:none"
           id="path200" /><path
           d="m 274.592,83.338 c 0.284,0.312 0.397,0.794 0.397,1.446 0,0.397 -0.057,0.737 -0.17,1.02 -0.227,0.539 -0.624,0.794 -1.191,0.794 -0.567,0 -0.963,-0.283 -1.162,-0.85 -0.113,-0.312 -0.17,-0.681 -0.17,-1.163 0,-0.396 0.057,-0.708 0.17,-0.963 0.199,-0.511 0.595,-0.766 1.162,-0.766 0.397,0 0.709,0.17 0.964,0.482 z m -3.09,3.827 h 0.794 v -0.624 c 0.17,0.199 0.369,0.369 0.539,0.511 0.283,0.17 0.623,0.255 0.992,0.255 0.538,0 1.049,-0.199 1.417,-0.624 0.397,-0.425 0.595,-1.02 0.595,-1.814 0,-1.077 -0.283,-1.843 -0.85,-2.296 -0.369,-0.284 -0.794,-0.425 -1.247,-0.425 -0.369,0 -0.681,0.085 -0.936,0.226 -0.141,0.114 -0.312,0.256 -0.482,0.482 v -2.494 h -0.822 z"
           style="fill:#231f20;fill-opacity:1;fill-rule:evenodd;stroke:none"
           id="path202" /><path
           d="m 276.775,82.318 h 0.85 v 6.69 h -0.85 z"
           style="fill:#231f20;fill-opacity:1;fill-rule:evenodd;stroke:none"
           id="path204" /><path
           d="m 279.694,83.055 c 0.171,-0.142 0.369,-0.227 0.624,-0.227 0.284,0 0.567,0.085 0.822,0.198 0.482,0.227 0.709,0.596 0.709,1.106 v 0.652 c -0.085,-0.057 -0.227,-0.113 -0.369,-0.17 -0.198,-0.029 -0.34,-0.057 -0.51,-0.085 l -0.482,-0.057 c -0.312,-0.057 -0.51,-0.113 -0.68,-0.198 -0.255,-0.142 -0.369,-0.369 -0.369,-0.681 0,-0.226 0.085,-0.425 0.255,-0.538 z m 1.758,2.182 c 0.17,0.029 0.312,0.114 0.368,0.256 0.029,0.056 0.057,0.17 0.057,0.311 0,0.284 -0.085,0.511 -0.312,0.624 -0.17,0.142 -0.482,0.198 -0.85,0.198 -0.425,0 -0.737,-0.113 -0.907,-0.34 -0.114,-0.17 -0.17,-0.34 -0.199,-0.595 h -0.765 c 0,0.624 0.199,1.049 0.567,1.276 0.397,0.226 0.822,0.34 1.304,0.34 0.567,0 1.077,-0.114 1.417,-0.312 0.369,-0.227 0.539,-0.567 0.539,-1.049 V 83.14 c 0,-0.085 0.028,-0.142 0.057,-0.199 0.028,-0.056 0.113,-0.085 0.226,-0.085 0.029,0 0.057,0 0.114,0 0.056,0.029 0.085,0.029 0.141,0.029 v -0.596 c -0.113,-0.028 -0.226,-0.056 -0.283,-0.085 -0.085,0 -0.17,0 -0.283,0 -0.284,0 -0.482,0.085 -0.596,0.312 -0.085,0.085 -0.113,0.255 -0.141,0.425 -0.171,-0.198 -0.426,-0.396 -0.766,-0.567 -0.312,-0.141 -0.652,-0.226 -1.02,-0.226 -0.454,0 -0.822,0.141 -1.106,0.397 -0.283,0.283 -0.425,0.623 -0.425,1.048 0,0.426 0.142,0.794 0.425,1.049 0.284,0.227 0.652,0.397 1.106,0.454 z"
           style="fill:#231f20;fill-opacity:1;fill-rule:evenodd;stroke:none"
           id="path206" /><path
           d="m 283.975,87.193 h 0.794 v -0.68 c 0.255,0.284 0.481,0.482 0.737,0.595 0.255,0.142 0.538,0.199 0.878,0.199 0.681,0 1.134,-0.255 1.389,-0.737 0.142,-0.255 0.199,-0.624 0.199,-1.106 v -3.146 h -0.822 v 3.09 c 0,0.283 -0.057,0.538 -0.142,0.708 -0.142,0.312 -0.397,0.454 -0.794,0.454 -0.198,0 -0.34,-0.029 -0.482,-0.057 -0.226,-0.057 -0.397,-0.198 -0.567,-0.397 -0.141,-0.17 -0.226,-0.34 -0.283,-0.51 -0.028,-0.17 -0.085,-0.397 -0.085,-0.737 v -2.551 h -0.822 z"
           style="fill:#231f20;fill-opacity:1;fill-rule:evenodd;stroke:none"
           id="path208" /><path
           d="m 292.479,85.124 c -0.029,0.369 -0.114,0.652 -0.227,0.85 -0.227,0.426 -0.595,0.624 -1.162,0.624 -0.369,0 -0.681,-0.142 -0.936,-0.453 -0.226,-0.256 -0.368,-0.596 -0.397,-1.021 z m -0.312,1.928 c 0.34,-0.142 0.567,-0.369 0.737,-0.624 0.17,-0.255 0.283,-0.567 0.34,-0.879 0.057,-0.227 0.057,-0.595 0.057,-1.077 h -3.544 c 0,-0.482 0.114,-0.879 0.341,-1.19 0.226,-0.284 0.538,-0.454 0.992,-0.454 0.425,0 0.793,0.142 1.049,0.425 0.141,0.17 0.255,0.369 0.311,0.567 h 0.794 c -0.028,-0.17 -0.085,-0.368 -0.198,-0.595 -0.142,-0.199 -0.255,-0.397 -0.426,-0.539 -0.226,-0.226 -0.538,-0.397 -0.907,-0.482 -0.226,-0.056 -0.453,-0.056 -0.68,-0.056 -0.595,0 -1.105,0.198 -1.531,0.652 -0.425,0.425 -0.623,1.048 -0.623,1.842 0,0.794 0.198,1.418 0.623,1.928 0.426,0.482 0.964,0.737 1.644,0.737 0.341,0 0.709,-0.085 1.021,-0.255 z"
           style="fill:#231f20;fill-opacity:1;fill-rule:evenodd;stroke:none"
           id="path210" /><path
           d="m 105.874,215.008 0.935,-3.856 0.936,3.856 h 0.935 l 0.936,-3.827 0.992,3.827 h 0.822 l -1.417,-4.876 h -0.851 l -0.992,3.742 -0.935,-3.742 h -0.851 l -1.445,4.876 z"
           style="fill:#f06a44;fill-opacity:1;fill-rule:evenodd;stroke:none"
           id="path212" /><path
           d="m 112.167,216.85 h 0.822 v -2.494 c 0.198,0.255 0.368,0.425 0.51,0.51 0.284,0.17 0.595,0.255 0.992,0.255 0.709,0 1.219,-0.227 1.474,-0.737 0.142,-0.255 0.199,-0.624 0.199,-1.106 v -3.146 h -0.879 v 3.09 c 0,0.34 -0.028,0.623 -0.113,0.793 -0.17,0.256 -0.426,0.397 -0.851,0.397 -0.34,0 -0.652,-0.141 -0.907,-0.368 -0.283,-0.227 -0.425,-0.652 -0.425,-1.304 v -2.608 h -0.822 z"
           style="fill:#f06a44;fill-opacity:1;fill-rule:evenodd;stroke:none"
           id="path214" /><path
           d="m 117.354,214.979 h 0.851 v -4.847 h -0.851 z m 0,1.843 h 0.851 v -0.936 h -0.851 z"
           style="fill:#f06a44;fill-opacity:1;fill-rule:evenodd;stroke:none"
           id="path216" /><path
           d="m 119.565,216.368 h 0.822 v -1.389 h 0.822 v -0.652 h -0.822 v -3.175 c 0,-0.17 0.057,-0.283 0.17,-0.34 0.086,-0.028 0.199,-0.056 0.369,-0.056 0.028,0 0.057,0 0.113,0 0.057,0 0.114,0 0.17,0.028 v -0.652 c -0.113,-0.028 -0.198,-0.057 -0.311,-0.057 -0.085,-0.028 -0.227,-0.028 -0.341,-0.028 -0.396,0 -0.651,0.113 -0.793,0.283 -0.114,0.199 -0.199,0.454 -0.199,0.766 v 3.231 h -0.652 v 0.652 h 0.652 z"
           style="fill:#f06a44;fill-opacity:1;fill-rule:evenodd;stroke:none"
           id="path218" /><path
           d="m 125.32,212.938 c -0.029,0.369 -0.114,0.652 -0.227,0.851 -0.227,0.396 -0.624,0.595 -1.162,0.595 -0.369,0 -0.681,-0.142 -0.936,-0.397 -0.255,-0.283 -0.368,-0.624 -0.397,-1.049 z m -0.312,1.928 c 0.34,-0.142 0.567,-0.397 0.737,-0.652 0.17,-0.227 0.283,-0.51 0.34,-0.851 0.028,-0.226 0.057,-0.566 0.057,-1.077 h -3.544 c 0,-0.482 0.114,-0.878 0.341,-1.19 0.198,-0.284 0.538,-0.454 0.992,-0.454 0.425,0 0.793,0.17 1.049,0.425 0.141,0.17 0.226,0.369 0.311,0.596 h 0.794 c -0.028,-0.199 -0.085,-0.397 -0.227,-0.596 -0.113,-0.226 -0.227,-0.425 -0.397,-0.538 -0.226,-0.255 -0.538,-0.425 -0.935,-0.51 -0.198,-0.029 -0.425,-0.057 -0.652,-0.057 -0.595,0 -1.105,0.198 -1.531,0.652 -0.425,0.453 -0.623,1.049 -0.623,1.842 0,0.794 0.198,1.418 0.623,1.9 0.426,0.51 0.964,0.765 1.644,0.765 0.341,0 0.709,-0.085 1.021,-0.255 z"
           style="fill:#f06a44;fill-opacity:1;fill-rule:evenodd;stroke:none"
           id="path220" /><path
           d="m 130.592,211.209 c 0.199,-0.34 0.567,-0.51 1.049,-0.51 0.368,0 0.68,0.17 0.935,0.482 0.227,0.312 0.369,0.793 0.369,1.389 0,0.623 -0.142,1.077 -0.397,1.389 -0.227,0.283 -0.539,0.425 -0.907,0.425 -0.425,0 -0.737,-0.142 -0.992,-0.482 -0.255,-0.312 -0.397,-0.765 -0.397,-1.389 0,-0.51 0.113,-0.935 0.34,-1.304 z m 1.814,3.657 c 0.142,-0.085 0.312,-0.255 0.482,-0.482 v 2.466 h 0.822 v -6.718 h -0.765 v 0.709 c -0.17,-0.312 -0.397,-0.567 -0.68,-0.681 -0.256,-0.141 -0.539,-0.198 -0.879,-0.198 -0.539,0 -0.992,0.227 -1.389,0.709 -0.397,0.453 -0.595,1.048 -0.595,1.814 0,0.708 0.17,1.304 0.538,1.842 0.34,0.51 0.879,0.766 1.531,0.766 0.368,0 0.68,-0.085 0.935,-0.227 z"
           style="fill:#f06a44;fill-opacity:1;fill-rule:evenodd;stroke:none"
           id="path222" /><path
           d="m 135.298,215.008 0.935,-3.856 0.936,3.856 h 0.935 l 0.964,-3.827 0.992,3.827 h 0.822 l -1.417,-4.876 h -0.851 l -0.992,3.742 -0.992,-3.742 h -0.822 l -1.417,4.876 z"
           style="fill:#f06a44;fill-opacity:1;fill-rule:evenodd;stroke:none"
           id="path224" /><path
           d="m 142.498,210.869 c 0.17,-0.142 0.368,-0.227 0.623,-0.227 0.284,0 0.596,0.085 0.851,0.227 0.453,0.198 0.68,0.567 0.68,1.077 v 0.652 c -0.085,-0.057 -0.227,-0.113 -0.369,-0.17 -0.17,-0.028 -0.311,-0.057 -0.481,-0.085 l -0.511,-0.057 c -0.283,-0.056 -0.51,-0.113 -0.68,-0.198 -0.227,-0.142 -0.368,-0.369 -0.368,-0.68 0,-0.227 0.085,-0.426 0.255,-0.539 z m 1.757,2.211 c 0.17,0 0.312,0.085 0.369,0.227 0.028,0.056 0.056,0.17 0.056,0.312 0,0.283 -0.085,0.481 -0.283,0.595 -0.199,0.142 -0.482,0.198 -0.879,0.198 -0.425,0 -0.737,-0.113 -0.907,-0.34 -0.113,-0.142 -0.17,-0.312 -0.198,-0.567 h -0.766 c 0,0.595 0.199,1.049 0.567,1.276 0.397,0.227 0.822,0.34 1.304,0.34 0.595,0 1.077,-0.085 1.417,-0.312 0.369,-0.227 0.539,-0.595 0.539,-1.049 v -2.806 c 0,-0.085 0.028,-0.142 0.057,-0.198 0.028,-0.057 0.113,-0.085 0.226,-0.085 0.029,0 0.057,0 0.114,0.028 0.057,0 0.085,0 0.142,0 v -0.595 c -0.114,-0.029 -0.227,-0.057 -0.284,-0.057 -0.057,-0.028 -0.17,-0.028 -0.283,-0.028 -0.284,0 -0.482,0.113 -0.596,0.311 -0.085,0.085 -0.113,0.255 -0.141,0.426 -0.17,-0.199 -0.426,-0.397 -0.737,-0.567 -0.312,-0.142 -0.681,-0.227 -1.049,-0.227 -0.454,0 -0.822,0.142 -1.106,0.397 -0.283,0.283 -0.425,0.623 -0.425,1.049 0,0.453 0.142,0.793 0.425,1.048 0.284,0.227 0.652,0.397 1.106,0.454 z"
           style="fill:#f06a44;fill-opacity:1;fill-rule:evenodd;stroke:none"
           id="path226" /><path
           d="m 146.806,215.008 h 0.766 v -0.823 c 0.085,0.142 0.226,0.341 0.482,0.596 0.255,0.227 0.566,0.34 0.878,0.34 0.029,0 0.057,0 0.085,0 0.029,0 0.085,0 0.17,-0.028 v -0.851 c -0.028,0 -0.085,0 -0.113,0 -0.057,0.029 -0.085,0.029 -0.142,0.029 -0.397,0 -0.765,-0.142 -0.963,-0.397 -0.227,-0.284 -0.341,-0.567 -0.341,-0.936 v -2.806 h -0.822 z"
           style="fill:#f06a44;fill-opacity:1;fill-rule:evenodd;stroke:none"
           id="path228" /><path
           d="m 150.265,216.51 c 0.198,0.255 0.566,0.397 1.105,0.397 0.057,0 0.085,0 0.142,0 0.057,0 0.17,0 0.227,0 v -0.766 c -0.114,0.029 -0.17,0.029 -0.227,0.029 -0.029,0 -0.057,0 -0.085,0 -0.255,0 -0.425,-0.057 -0.454,-0.199 -0.056,-0.113 -0.085,-0.453 -0.085,-0.992 h 0.851 v -0.623 h -0.851 v -4.224 h -0.794 v 4.224 h -0.68 v 0.623 h 0.68 v 0.766 c 0,0.34 0.057,0.595 0.171,0.765 z"
           style="fill:#f06a44;fill-opacity:1;fill-rule:evenodd;stroke:none"
           id="path230" /><path
           d="m 97.172,200.494 c 0.028,-0.255 0.085,-0.482 0.198,-0.623 0.227,-0.256 0.567,-0.397 1.106,-0.397 0.311,0 0.567,0.056 0.793,0.198 0.255,0.142 0.369,0.34 0.369,0.624 0,0.198 -0.085,0.368 -0.284,0.453 -0.113,0.085 -0.368,0.17 -0.708,0.255 l -0.652,0.142 c -0.425,0.114 -0.737,0.255 -0.936,0.397 -0.368,0.198 -0.538,0.51 -0.538,0.907 0,0.454 0.17,0.822 0.51,1.106 0.312,0.283 0.765,0.425 1.332,0.425 0.766,0 1.276,-0.199 1.644,-0.624 0.199,-0.283 0.312,-0.567 0.312,-0.879 h -0.822 c 0,0.17 -0.085,0.341 -0.198,0.482 -0.17,0.227 -0.511,0.34 -0.992,0.34 -0.312,0 -0.539,-0.085 -0.709,-0.198 -0.17,-0.113 -0.255,-0.255 -0.255,-0.454 0,-0.226 0.113,-0.396 0.34,-0.51 0.113,-0.085 0.283,-0.141 0.538,-0.198 l 0.539,-0.142 c 0.595,-0.142 0.992,-0.283 1.247,-0.397 0.312,-0.255 0.454,-0.567 0.454,-1.02 0,-0.425 -0.17,-0.794 -0.51,-1.106 -0.341,-0.34 -0.851,-0.482 -1.531,-0.482 -0.737,0 -1.247,0.17 -1.559,0.482 -0.284,0.34 -0.454,0.737 -0.482,1.219 z"
           style="fill:#f06a44;fill-opacity:1;fill-rule:evenodd;stroke:none"
           id="path232" /><path
           d="m 104.372,200.012 c 0.255,0.312 0.368,0.794 0.368,1.446 0,0.397 -0.057,0.737 -0.17,0.992 -0.198,0.539 -0.595,0.822 -1.19,0.822 -0.567,0 -0.964,-0.283 -1.163,-0.85 -0.113,-0.312 -0.17,-0.681 -0.17,-1.191 0,-0.368 0.057,-0.68 0.17,-0.964 0.199,-0.482 0.596,-0.737 1.163,-0.737 0.396,0 0.737,0.142 0.992,0.482 z m -3.118,3.827 h 0.793 v -0.652 c 0.17,0.227 0.34,0.397 0.539,0.51 0.283,0.199 0.595,0.284 1.02,0.284 0.539,0 1.021,-0.199 1.389,-0.624 0.397,-0.425 0.596,-1.02 0.596,-1.814 0,-1.077 -0.284,-1.843 -0.851,-2.296 -0.34,-0.284 -0.765,-0.425 -1.247,-0.425 -0.369,0 -0.68,0.056 -0.936,0.226 -0.141,0.086 -0.311,0.256 -0.481,0.482 v -2.494 h -0.822 z"
           style="fill:#f06a44;fill-opacity:1;fill-rule:evenodd;stroke:none"
           id="path234" /><path
           d="m 106.498,203.839 h 0.85 v -4.876 h -0.85 z m 0,1.843 h 0.85 v -0.936 h -0.85 z"
           style="fill:#f06a44;fill-opacity:1;fill-rule:evenodd;stroke:none"
           id="path236" /><path
           d="m 108.567,203.867 h 0.765 v -0.68 c 0.227,0.284 0.482,0.482 0.737,0.595 0.255,0.142 0.539,0.199 0.851,0.199 0.708,0 1.19,-0.255 1.417,-0.737 0.142,-0.255 0.227,-0.624 0.227,-1.134 v -3.147 h -0.851 v 3.09 c 0,0.312 -0.028,0.539 -0.113,0.737 -0.198,0.284 -0.454,0.454 -0.822,0.454 -0.198,0 -0.369,-0.029 -0.482,-0.057 -0.227,-0.085 -0.425,-0.198 -0.595,-0.397 -0.142,-0.17 -0.227,-0.34 -0.255,-0.51 -0.057,-0.17 -0.057,-0.454 -0.057,-0.765 v -2.552 h -0.822 z"
           style="fill:#f06a44;fill-opacity:1;fill-rule:evenodd;stroke:none"
           id="path238" /><path
           d="m 119.339,200.012 c 0.255,0.312 0.396,0.794 0.396,1.446 0,0.397 -0.056,0.737 -0.17,0.992 -0.226,0.539 -0.623,0.822 -1.162,0.822 -0.567,0 -0.964,-0.283 -1.19,-0.85 -0.114,-0.312 -0.17,-0.681 -0.17,-1.191 0,-0.368 0.056,-0.68 0.17,-0.964 0.226,-0.482 0.623,-0.737 1.19,-0.737 0.369,0 0.68,0.142 0.936,0.482 z m -3.09,3.827 h 0.822 v -0.652 c 0.17,0.227 0.34,0.397 0.538,0.51 0.284,0.199 0.596,0.284 0.964,0.284 0.567,0 1.021,-0.199 1.418,-0.624 0.368,-0.425 0.566,-1.02 0.566,-1.814 0,-1.077 -0.283,-1.843 -0.822,-2.296 -0.368,-0.284 -0.765,-0.425 -1.247,-0.425 -0.368,0 -0.652,0.056 -0.907,0.226 -0.142,0.086 -0.312,0.256 -0.482,0.482 v -2.494 h -0.85 z"
           style="fill:#f06a44;fill-opacity:1;fill-rule:evenodd;stroke:none"
           id="path240" /><path
           d="m 121.493,203.867 h 0.794 v -0.85 c 0.056,0.17 0.198,0.368 0.482,0.595 0.255,0.255 0.538,0.369 0.85,0.369 0.028,0 0.057,0 0.085,0 0.028,-0.029 0.113,-0.029 0.198,-0.029 v -0.878 c -0.056,0.028 -0.113,0.028 -0.141,0.028 -0.057,0 -0.085,0 -0.142,0 -0.397,0 -0.709,-0.113 -0.936,-0.397 -0.255,-0.255 -0.368,-0.567 -0.368,-0.935 v -2.807 h -0.822 z"
           style="fill:#f06a44;fill-opacity:1;fill-rule:evenodd;stroke:none"
           id="path242" /><path
           d="m 127.899,201.826 c -0.028,0.341 -0.113,0.624 -0.227,0.851 -0.226,0.397 -0.595,0.595 -1.105,0.595 -0.397,0 -0.709,-0.142 -0.936,-0.425 -0.255,-0.255 -0.396,-0.595 -0.425,-1.021 z m -0.283,1.9 c 0.312,-0.17 0.567,-0.369 0.708,-0.624 0.17,-0.255 0.284,-0.539 0.341,-0.85 0.056,-0.227 0.056,-0.596 0.056,-1.078 h -3.515 c 0,-0.51 0.114,-0.878 0.34,-1.19 0.227,-0.312 0.539,-0.454 0.993,-0.454 0.425,0 0.765,0.142 1.02,0.426 0.142,0.17 0.255,0.368 0.312,0.566 h 0.794 c -0.029,-0.17 -0.085,-0.368 -0.199,-0.595 -0.142,-0.227 -0.255,-0.397 -0.425,-0.538 -0.227,-0.227 -0.539,-0.426 -0.907,-0.511 -0.199,-0.056 -0.397,-0.085 -0.652,-0.085 -0.595,0 -1.106,0.227 -1.531,0.709 -0.453,0.425 -0.652,1.049 -0.652,1.843 0,0.765 0.199,1.417 0.652,1.899 0.425,0.482 0.964,0.737 1.644,0.737 0.34,0 0.681,-0.085 1.021,-0.255 z"
           style="fill:#f06a44;fill-opacity:1;fill-rule:evenodd;stroke:none"
           id="path244" /><path
           d="m 132.973,203.612 c 0.34,-0.283 0.567,-0.737 0.624,-1.389 h -0.794 c -0.057,0.312 -0.17,0.567 -0.34,0.766 -0.17,0.198 -0.425,0.283 -0.822,0.283 -0.51,0 -0.907,-0.255 -1.134,-0.765 -0.142,-0.312 -0.227,-0.737 -0.227,-1.219 0,-0.482 0.114,-0.879 0.312,-1.219 0.199,-0.34 0.567,-0.51 0.992,-0.51 0.34,0 0.624,0.113 0.822,0.312 0.199,0.198 0.312,0.481 0.397,0.85 h 0.794 c -0.085,-0.652 -0.312,-1.106 -0.68,-1.417 -0.369,-0.312 -0.823,-0.482 -1.389,-0.482 -0.652,0 -1.163,0.255 -1.559,0.737 -0.369,0.453 -0.567,1.049 -0.567,1.729 0,0.879 0.226,1.531 0.623,2.012 0.425,0.454 0.964,0.709 1.616,0.709 0.539,0 0.992,-0.142 1.332,-0.397 z"
           style="fill:#f06a44;fill-opacity:1;fill-rule:evenodd;stroke:none"
           id="path246" /><path
           d="m 137.679,201.826 c -0.029,0.341 -0.114,0.624 -0.227,0.851 -0.227,0.397 -0.595,0.595 -1.106,0.595 -0.368,0 -0.68,-0.142 -0.935,-0.425 -0.255,-0.255 -0.397,-0.595 -0.397,-1.021 z m -0.284,1.9 c 0.312,-0.17 0.596,-0.369 0.766,-0.624 0.141,-0.255 0.255,-0.539 0.311,-0.85 0.057,-0.227 0.085,-0.596 0.085,-1.078 h -3.571 c 0.028,-0.51 0.142,-0.878 0.34,-1.19 0.227,-0.312 0.567,-0.454 1.02,-0.454 0.426,0 0.766,0.142 0.993,0.426 0.141,0.17 0.255,0.368 0.311,0.566 h 0.822 c 0,-0.17 -0.085,-0.368 -0.198,-0.595 -0.113,-0.227 -0.255,-0.397 -0.397,-0.538 -0.283,-0.227 -0.595,-0.426 -0.935,-0.511 -0.199,-0.056 -0.425,-0.085 -0.681,-0.085 -0.595,0 -1.105,0.227 -1.53,0.709 -0.397,0.425 -0.624,1.049 -0.624,1.843 0,0.765 0.227,1.417 0.624,1.899 0.425,0.482 0.992,0.737 1.672,0.737 0.34,0 0.652,-0.085 0.992,-0.255 z"
           style="fill:#f06a44;fill-opacity:1;fill-rule:evenodd;stroke:none"
           id="path248" /><path
           d="m 140.031,200.494 c 0.029,-0.255 0.114,-0.482 0.227,-0.623 0.199,-0.256 0.596,-0.397 1.106,-0.397 0.312,0 0.595,0.056 0.822,0.198 0.227,0.142 0.34,0.34 0.34,0.624 0,0.198 -0.085,0.368 -0.283,0.453 -0.114,0.085 -0.341,0.17 -0.709,0.255 l -0.652,0.142 c -0.454,0.114 -0.765,0.255 -0.964,0.397 -0.34,0.198 -0.538,0.51 -0.538,0.907 0,0.454 0.17,0.822 0.51,1.106 0.34,0.283 0.822,0.425 1.389,0.425 0.737,0 1.275,-0.199 1.615,-0.624 0.199,-0.283 0.284,-0.567 0.284,-0.879 h -0.765 c -0.029,0.17 -0.085,0.341 -0.199,0.482 -0.198,0.227 -0.538,0.34 -0.992,0.34 -0.312,0 -0.567,-0.085 -0.765,-0.198 -0.142,-0.113 -0.227,-0.255 -0.227,-0.454 0,-0.226 0.113,-0.396 0.34,-0.51 0.113,-0.085 0.312,-0.141 0.539,-0.198 l 0.567,-0.142 c 0.595,-0.142 0.992,-0.283 1.19,-0.397 0.312,-0.255 0.482,-0.567 0.482,-1.02 0,-0.425 -0.17,-0.794 -0.51,-1.106 -0.312,-0.34 -0.822,-0.482 -1.503,-0.482 -0.737,0 -1.275,0.17 -1.587,0.482 -0.312,0.34 -0.482,0.737 -0.482,1.219 z"
           style="fill:#f06a44;fill-opacity:1;fill-rule:evenodd;stroke:none"
           id="path250" /><path
           d="m 144.709,200.494 c 0.028,-0.255 0.113,-0.482 0.226,-0.623 0.199,-0.256 0.567,-0.397 1.078,-0.397 0.311,0 0.595,0.056 0.822,0.198 0.226,0.142 0.34,0.34 0.34,0.624 0,0.198 -0.085,0.368 -0.284,0.453 -0.113,0.085 -0.34,0.17 -0.708,0.255 l -0.652,0.142 c -0.425,0.114 -0.737,0.255 -0.936,0.397 -0.368,0.198 -0.567,0.51 -0.567,0.907 0,0.454 0.17,0.822 0.511,1.106 0.368,0.283 0.822,0.425 1.389,0.425 0.737,0 1.275,-0.199 1.615,-0.624 0.199,-0.283 0.284,-0.567 0.284,-0.879 h -0.766 c -0.028,0.17 -0.085,0.341 -0.198,0.482 -0.198,0.227 -0.539,0.34 -0.992,0.34 -0.34,0 -0.567,-0.085 -0.737,-0.198 -0.142,-0.113 -0.227,-0.255 -0.227,-0.454 0,-0.226 0.085,-0.396 0.312,-0.51 0.113,-0.085 0.312,-0.141 0.538,-0.198 l 0.567,-0.142 c 0.596,-0.142 0.993,-0.283 1.191,-0.397 0.312,-0.255 0.482,-0.567 0.482,-1.02 0,-0.425 -0.17,-0.794 -0.51,-1.106 -0.312,-0.34 -0.822,-0.482 -1.503,-0.482 -0.737,0 -1.247,0.17 -1.587,0.482 -0.312,0.34 -0.482,0.737 -0.482,1.219 z"
           style="fill:#f06a44;fill-opacity:1;fill-rule:evenodd;stroke:none"
           id="path252" /><path
           d="m 148.847,203.839 h 0.851 v -4.876 h -0.851 z m 0,1.843 h 0.851 v -0.936 h -0.851 z"
           style="fill:#f06a44;fill-opacity:1;fill-rule:evenodd;stroke:none"
           id="path254" /><path
           d="m 153.95,200.126 c 0.198,0.396 0.311,0.85 0.311,1.389 0,0.453 -0.085,0.822 -0.226,1.105 -0.227,0.454 -0.624,0.68 -1.191,0.68 -0.51,0 -0.85,-0.198 -1.077,-0.566 -0.227,-0.397 -0.34,-0.851 -0.34,-1.389 0,-0.539 0.113,-0.964 0.34,-1.333 0.227,-0.34 0.567,-0.51 1.049,-0.51 0.567,0 0.935,0.198 1.134,0.624 z m 0.51,3.259 c 0.425,-0.425 0.652,-1.048 0.652,-1.842 0,-0.822 -0.199,-1.474 -0.567,-1.984 -0.397,-0.511 -0.964,-0.766 -1.786,-0.766 -0.68,0 -1.19,0.227 -1.587,0.681 -0.397,0.453 -0.596,1.077 -0.596,1.814 0,0.85 0.199,1.502 0.624,1.984 0.425,0.482 0.964,0.737 1.644,0.737 0.652,0 1.191,-0.227 1.616,-0.624 z"
           style="fill:#f06a44;fill-opacity:1;fill-rule:evenodd;stroke:none"
           id="path256" /><path
           d="m 156.076,203.867 h 0.793 v -0.68 c 0.227,0.284 0.454,0.482 0.709,0.595 0.255,0.142 0.567,0.199 0.879,0.199 0.708,0 1.162,-0.255 1.417,-0.737 0.142,-0.255 0.198,-0.624 0.198,-1.134 v -3.147 h -0.822 v 3.09 c 0,0.312 -0.056,0.539 -0.141,0.737 -0.142,0.284 -0.426,0.454 -0.822,0.454 -0.199,0 -0.341,-0.029 -0.482,-0.057 -0.227,-0.085 -0.397,-0.198 -0.567,-0.397 -0.142,-0.17 -0.227,-0.34 -0.284,-0.51 -0.028,-0.17 -0.056,-0.454 -0.056,-0.765 v -2.552 h -0.822 z"
           style="fill:#f06a44;fill-opacity:1;fill-rule:evenodd;stroke:none"
           id="path258" /><path
           d="m 245.083,304.752 c 0.199,0.426 0.284,0.879 0.284,1.361 0,0.454 -0.057,0.822 -0.198,1.106 -0.227,0.453 -0.624,0.68 -1.191,0.68 -0.482,0 -0.85,-0.199 -1.077,-0.567 -0.255,-0.397 -0.369,-0.85 -0.369,-1.389 0,-0.51 0.114,-0.935 0.369,-1.276 0.227,-0.368 0.595,-0.538 1.077,-0.538 0.539,0 0.907,0.198 1.105,0.623 z m 0.511,3.232 c 0.425,-0.425 0.623,-1.021 0.623,-1.843 0,-0.765 -0.17,-1.417 -0.567,-1.956 -0.368,-0.51 -0.963,-0.765 -1.757,-0.765 -0.652,0 -1.219,0.227 -1.616,0.68 -0.368,0.482 -0.567,1.078 -0.567,1.843 0,0.822 0.199,1.474 0.596,1.956 0.425,0.482 1.02,0.709 1.7,0.709 0.624,0 1.134,-0.199 1.588,-0.624 z"
           style="fill:#2a7196;fill-opacity:1;fill-rule:evenodd;stroke:none"
           id="path260" /><path
           d="m 247.238,308.466 h 0.765 v -0.822 c 0.057,0.141 0.227,0.34 0.454,0.595 0.255,0.227 0.538,0.34 0.878,0.34 0,0 0.029,0 0.057,0 0.057,0 0.114,0 0.227,-0.028 V 307.7 c -0.085,0 -0.113,0 -0.17,0 -0.029,0.029 -0.085,0.029 -0.142,0.029 -0.397,0 -0.709,-0.142 -0.935,-0.397 -0.227,-0.284 -0.341,-0.567 -0.341,-0.935 v -2.807 h -0.793 z"
           style="fill:#2a7196;fill-opacity:1;fill-rule:evenodd;stroke:none"
           id="path262" /><path
           d="m 253.361,304.667 c 0.226,0.369 0.34,0.822 0.34,1.389 0,0.511 -0.114,0.936 -0.34,1.276 -0.227,0.34 -0.567,0.51 -0.992,0.51 -0.369,0 -0.681,-0.142 -0.964,-0.425 -0.284,-0.255 -0.425,-0.709 -0.425,-1.361 0,-0.453 0.056,-0.822 0.17,-1.105 0.226,-0.539 0.623,-0.794 1.219,-0.794 0.425,0 0.765,0.17 0.992,0.51 z m -3.147,5.641 h 0.794 v -2.466 c 0.198,0.255 0.397,0.425 0.652,0.567 0.255,0.142 0.51,0.199 0.822,0.199 0.595,0 1.134,-0.227 1.502,-0.652 0.369,-0.426 0.567,-1.049 0.567,-1.843 0,-0.765 -0.198,-1.417 -0.567,-1.928 -0.368,-0.51 -0.907,-0.765 -1.587,-0.765 -0.369,0 -0.68,0.085 -0.936,0.284 -0.141,0.113 -0.311,0.283 -0.481,0.51 v -0.624 h -0.766 z"
           style="fill:#2a7196;fill-opacity:1;fill-rule:evenodd;stroke:none"
           id="path264" /><path
           d="m 255.458,308.437 h 0.879 v -4.847 h -0.879 z m 0,1.843 h 0.879 v -0.935 h -0.879 z"
           style="fill:#2a7196;fill-opacity:1;fill-rule:evenodd;stroke:none"
           id="path266" /><path
           d="m 257.726,309.826 h 0.822 v -1.36 h 0.765 v -0.652 h -0.765 v -3.175 c 0,-0.17 0.057,-0.283 0.17,-0.34 0.057,-0.028 0.17,-0.057 0.312,-0.057 0.057,0 0.085,0 0.142,0 0.028,0 0.085,0 0.141,0.029 v -0.681 c -0.085,-0.028 -0.17,-0.056 -0.283,-0.056 -0.113,-0.029 -0.199,-0.029 -0.34,-0.029 -0.369,0 -0.624,0.114 -0.766,0.284 -0.141,0.198 -0.198,0.482 -0.198,0.793 v 3.232 h -0.68 v 0.652 h 0.68 z"
           style="fill:#2a7196;fill-opacity:1;fill-rule:evenodd;stroke:none"
           id="path268" /><path
           d="m 260.986,304.327 c 0.17,-0.142 0.397,-0.198 0.623,-0.198 0.284,0 0.567,0.056 0.822,0.198 0.454,0.199 0.709,0.567 0.709,1.077 v 0.652 c -0.085,-0.056 -0.255,-0.113 -0.397,-0.17 -0.17,-0.028 -0.312,-0.056 -0.453,-0.085 l -0.51,-0.056 c -0.284,-0.029 -0.511,-0.114 -0.652,-0.199 -0.256,-0.142 -0.397,-0.368 -0.397,-0.68 0,-0.227 0.085,-0.397 0.255,-0.539 z m 1.729,2.211 c 0.198,0 0.34,0.085 0.397,0.227 0.057,0.057 0.057,0.198 0.057,0.34 0,0.284 -0.086,0.482 -0.312,0.595 -0.199,0.142 -0.482,0.199 -0.851,0.199 -0.425,0 -0.737,-0.114 -0.907,-0.34 -0.113,-0.142 -0.17,-0.312 -0.198,-0.567 h -0.766 c 0.029,0.595 0.199,1.02 0.596,1.247 0.368,0.227 0.793,0.34 1.275,0.34 0.596,0 1.077,-0.085 1.446,-0.312 0.34,-0.226 0.51,-0.567 0.51,-1.02 v -2.835 c 0,-0.085 0.029,-0.141 0.057,-0.198 0.028,-0.057 0.113,-0.085 0.227,-0.085 0.028,0 0.085,0 0.113,0.028 0.057,0 0.085,0 0.142,0 v -0.595 c -0.114,-0.028 -0.227,-0.057 -0.284,-0.057 -0.056,-0.028 -0.141,-0.028 -0.283,-0.028 -0.255,0 -0.482,0.113 -0.595,0.312 -0.085,0.085 -0.114,0.255 -0.142,0.453 -0.17,-0.227 -0.425,-0.425 -0.737,-0.567 -0.312,-0.17 -0.652,-0.255 -1.049,-0.255 -0.454,0 -0.822,0.142 -1.105,0.425 -0.284,0.255 -0.426,0.596 -0.426,1.021 0,0.453 0.142,0.794 0.426,1.049 0.283,0.226 0.651,0.396 1.105,0.453 z"
           style="fill:#2a7196;fill-opacity:1;fill-rule:evenodd;stroke:none"
           id="path270" /><path
           d="m 265.294,303.59 h 0.851 v 6.69 h -0.851 z"
           style="fill:#2a7196;fill-opacity:1;fill-rule:evenodd;stroke:none"
           id="path272" /><path
           d="m 236.551,293.499 c 0.255,0.312 0.369,0.794 0.369,1.417 0,0.397 -0.057,0.737 -0.17,0.992 -0.199,0.539 -0.624,0.822 -1.191,0.822 -0.567,0 -0.964,-0.283 -1.162,-0.85 -0.114,-0.312 -0.17,-0.68 -0.17,-1.162 0,-0.369 0.056,-0.681 0.17,-0.964 0.227,-0.482 0.595,-0.737 1.162,-0.737 0.397,0 0.737,0.142 0.992,0.482 z m -3.118,3.798 h 0.822 v -0.652 c 0.142,0.227 0.34,0.397 0.51,0.511 0.284,0.198 0.624,0.283 0.992,0.283 0.567,0 1.049,-0.198 1.418,-0.624 0.397,-0.425 0.595,-1.02 0.595,-1.814 0,-1.049 -0.283,-1.814 -0.85,-2.267 -0.34,-0.284 -0.794,-0.426 -1.248,-0.426 -0.368,0 -0.68,0.057 -0.935,0.227 -0.142,0.085 -0.312,0.255 -0.482,0.482 v -2.523 h -0.822 z"
           style="fill:#2a7196;fill-opacity:1;fill-rule:evenodd;stroke:none"
           id="path274" /><path
           d="m 238.706,297.326 h 0.765 v -0.851 c 0.057,0.17 0.227,0.369 0.482,0.596 0.283,0.255 0.567,0.368 0.878,0.368 0.029,0 0.029,0 0.086,0 0.028,-0.028 0.085,-0.028 0.17,-0.028 v -0.879 c -0.029,0.028 -0.085,0.028 -0.114,0.028 -0.056,0 -0.085,0 -0.142,0 -0.425,0 -0.765,-0.113 -0.992,-0.425 -0.198,-0.255 -0.311,-0.567 -0.311,-0.907 v -2.806 h -0.822 z"
           style="fill:#2a7196;fill-opacity:1;fill-rule:evenodd;stroke:none"
           id="path276" /><path
           d="m 245.083,295.256 c -0.028,0.341 -0.085,0.624 -0.226,0.851 -0.199,0.397 -0.596,0.623 -1.106,0.623 -0.368,0 -0.708,-0.17 -0.964,-0.453 -0.255,-0.255 -0.368,-0.595 -0.396,-1.021 z m -0.283,1.928 c 0.34,-0.17 0.567,-0.369 0.737,-0.652 0.17,-0.255 0.283,-0.539 0.34,-0.85 0.029,-0.227 0.057,-0.596 0.057,-1.078 h -3.572 c 0.029,-0.51 0.142,-0.907 0.369,-1.19 0.198,-0.312 0.567,-0.454 1.02,-0.454 0.425,0 0.766,0.142 1.021,0.425 0.141,0.171 0.226,0.369 0.283,0.567 h 0.822 c -0.028,-0.17 -0.113,-0.368 -0.227,-0.595 -0.113,-0.227 -0.255,-0.397 -0.396,-0.538 -0.256,-0.227 -0.539,-0.397 -0.908,-0.482 -0.198,-0.057 -0.425,-0.085 -0.652,-0.085 -0.651,0 -1.162,0.226 -1.559,0.68 -0.425,0.425 -0.623,1.049 -0.623,1.842 0,0.766 0.198,1.418 0.623,1.928 0.426,0.482 0.964,0.737 1.673,0.737 0.34,0 0.68,-0.085 0.992,-0.255 z"
           style="fill:#2a7196;fill-opacity:1;fill-rule:evenodd;stroke:none"
           id="path278" /><path
           d="m 250.186,297.071 c 0.34,-0.284 0.538,-0.766 0.623,-1.418 h -0.793 c -0.057,0.312 -0.17,0.567 -0.34,0.766 -0.17,0.226 -0.454,0.311 -0.822,0.311 -0.539,0 -0.908,-0.283 -1.134,-0.793 -0.142,-0.312 -0.199,-0.737 -0.199,-1.219 0,-0.482 0.085,-0.879 0.312,-1.219 0.198,-0.34 0.51,-0.51 0.964,-0.51 0.34,0 0.595,0.113 0.794,0.311 0.198,0.199 0.34,0.482 0.425,0.851 h 0.793 c -0.113,-0.652 -0.311,-1.106 -0.68,-1.417 -0.368,-0.284 -0.822,-0.454 -1.389,-0.454 -0.652,0 -1.162,0.255 -1.531,0.709 -0.396,0.453 -0.595,1.048 -0.595,1.729 0,0.85 0.199,1.53 0.652,2.041 0.397,0.453 0.936,0.708 1.588,0.708 0.538,0 0.992,-0.141 1.332,-0.396 z"
           style="fill:#2a7196;fill-opacity:1;fill-rule:evenodd;stroke:none"
           id="path280" /><path
           d="m 254.92,295.256 c -0.029,0.341 -0.114,0.624 -0.227,0.851 -0.227,0.397 -0.595,0.623 -1.134,0.623 -0.368,0 -0.68,-0.17 -0.935,-0.453 -0.227,-0.255 -0.369,-0.595 -0.397,-1.021 z m -0.312,1.928 c 0.34,-0.17 0.567,-0.369 0.737,-0.652 0.17,-0.255 0.283,-0.539 0.34,-0.85 0.057,-0.227 0.057,-0.596 0.057,-1.078 h -3.515 c 0,-0.51 0.113,-0.907 0.34,-1.19 0.227,-0.312 0.539,-0.454 0.992,-0.454 0.425,0 0.765,0.142 1.021,0.425 0.141,0.171 0.255,0.369 0.311,0.567 h 0.794 c -0.028,-0.17 -0.085,-0.368 -0.198,-0.595 -0.142,-0.227 -0.256,-0.397 -0.426,-0.538 -0.226,-0.227 -0.538,-0.397 -0.907,-0.482 -0.198,-0.057 -0.425,-0.085 -0.652,-0.085 -0.595,0 -1.105,0.226 -1.559,0.68 -0.425,0.425 -0.623,1.049 -0.623,1.842 0,0.766 0.198,1.418 0.623,1.928 0.454,0.482 0.992,0.737 1.673,0.737 0.34,0 0.68,-0.085 0.992,-0.255 z"
           style="fill:#2a7196;fill-opacity:1;fill-rule:evenodd;stroke:none"
           id="path282" /><path
           d="m 257.244,293.952 c 0.028,-0.255 0.085,-0.481 0.199,-0.623 0.226,-0.255 0.595,-0.397 1.133,-0.397 0.312,0 0.567,0.085 0.822,0.198 0.227,0.142 0.341,0.341 0.341,0.624 0,0.198 -0.085,0.368 -0.284,0.51 -0.113,0.057 -0.34,0.142 -0.709,0.227 l -0.652,0.142 c -0.453,0.113 -0.765,0.227 -0.963,0.368 -0.369,0.199 -0.539,0.51 -0.539,0.907 0,0.454 0.17,0.822 0.51,1.106 0.341,0.283 0.794,0.425 1.389,0.425 0.737,0 1.276,-0.198 1.588,-0.624 0.198,-0.283 0.312,-0.567 0.312,-0.878 h -0.766 c -0.028,0.17 -0.085,0.34 -0.198,0.482 -0.199,0.226 -0.539,0.34 -1.021,0.34 -0.312,0 -0.567,-0.085 -0.737,-0.199 -0.17,-0.113 -0.255,-0.255 -0.255,-0.453 0,-0.227 0.114,-0.397 0.34,-0.51 0.114,-0.086 0.284,-0.142 0.567,-0.199 l 0.539,-0.142 c 0.595,-0.141 1.02,-0.283 1.219,-0.396 0.312,-0.227 0.482,-0.539 0.482,-1.021 0,-0.425 -0.17,-0.794 -0.511,-1.134 -0.34,-0.312 -0.85,-0.453 -1.53,-0.453 -0.737,0 -1.276,0.17 -1.559,0.482 -0.312,0.34 -0.482,0.737 -0.511,1.218 z"
           style="fill:#2a7196;fill-opacity:1;fill-rule:evenodd;stroke:none"
           id="path284" /><path
           d="m 261.893,293.952 c 0.028,-0.255 0.085,-0.481 0.198,-0.623 0.255,-0.255 0.624,-0.397 1.134,-0.397 0.312,0 0.567,0.085 0.822,0.198 0.227,0.142 0.34,0.341 0.34,0.624 0,0.198 -0.085,0.368 -0.283,0.51 -0.113,0.057 -0.369,0.142 -0.709,0.227 l -0.652,0.142 c -0.425,0.113 -0.765,0.227 -0.963,0.368 -0.369,0.199 -0.539,0.51 -0.539,0.907 0,0.454 0.17,0.822 0.51,1.106 0.34,0.283 0.822,0.425 1.389,0.425 0.737,0 1.276,-0.198 1.588,-0.624 0.198,-0.283 0.311,-0.567 0.311,-0.878 h -0.793 c 0,0.17 -0.057,0.34 -0.199,0.482 -0.17,0.226 -0.51,0.34 -0.992,0.34 -0.312,0 -0.538,-0.085 -0.709,-0.199 -0.17,-0.113 -0.283,-0.255 -0.283,-0.453 0,-0.227 0.142,-0.397 0.368,-0.51 0.114,-0.086 0.284,-0.142 0.539,-0.199 l 0.539,-0.142 c 0.595,-0.141 0.992,-0.283 1.219,-0.396 0.311,-0.227 0.453,-0.539 0.453,-1.021 0,-0.425 -0.142,-0.794 -0.482,-1.134 -0.34,-0.312 -0.85,-0.453 -1.53,-0.453 -0.709,0 -1.276,0.17 -1.588,0.482 -0.283,0.34 -0.453,0.737 -0.482,1.218 z"
           style="fill:#2a7196;fill-opacity:1;fill-rule:evenodd;stroke:none"
           id="path286" /><path
           d="m 266.06,297.269 h 0.85 v -4.847 h -0.85 z m 0,1.871 h 0.85 v -0.964 h -0.85 z"
           style="fill:#2a7196;fill-opacity:1;fill-rule:evenodd;stroke:none"
           id="path288" /><path
           d="m 271.162,293.584 c 0.199,0.397 0.284,0.879 0.284,1.389 0,0.453 -0.057,0.822 -0.199,1.105 -0.227,0.454 -0.623,0.681 -1.19,0.681 -0.511,0 -0.879,-0.199 -1.106,-0.567 -0.227,-0.397 -0.34,-0.851 -0.34,-1.389 0,-0.51 0.113,-0.964 0.34,-1.332 0.227,-0.341 0.595,-0.511 1.106,-0.511 0.538,0 0.907,0.199 1.105,0.624 z m 0.51,3.26 c 0.426,-0.425 0.624,-1.049 0.624,-1.843 0,-0.793 -0.17,-1.474 -0.567,-1.984 -0.368,-0.51 -0.964,-0.765 -1.757,-0.765 -0.681,0 -1.219,0.226 -1.588,0.68 -0.397,0.453 -0.595,1.077 -0.595,1.842 0,0.823 0.198,1.474 0.624,1.956 0.396,0.482 0.963,0.737 1.672,0.737 0.624,0 1.162,-0.226 1.587,-0.623 z"
           style="fill:#2a7196;fill-opacity:1;fill-rule:evenodd;stroke:none"
           id="path290" /><path
           d="m 273.288,297.326 h 0.766 v -0.681 c 0.226,0.284 0.481,0.482 0.737,0.596 0.255,0.141 0.538,0.198 0.85,0.198 0.709,0 1.162,-0.255 1.446,-0.737 0.113,-0.255 0.198,-0.652 0.198,-1.162 v -3.118 h -0.879 v 3.061 c 0,0.312 -0.028,0.539 -0.113,0.737 -0.142,0.312 -0.425,0.482 -0.794,0.482 -0.198,0 -0.368,-0.028 -0.482,-0.057 -0.226,-0.085 -0.425,-0.198 -0.595,-0.425 -0.142,-0.17 -0.227,-0.34 -0.255,-0.51 -0.057,-0.17 -0.057,-0.425 -0.057,-0.737 v -2.551 h -0.822 z"
           style="fill:#2a7196;fill-opacity:1;fill-rule:evenodd;stroke:none"
           id="path292" /><path
           d="m 208.29,232.752 h 0.822 l -0.199,-0.935 h -0.822 z m -0.425,-1.842 h 0.878 l -1.049,-4.847 h -0.85 z"
           style="fill:#2a7196;fill-opacity:1;fill-rule:evenodd;stroke:none"
           id="path294" /><path
           d="m 206.249,315.269 v 0.935 h 0.68 v 1.361 h 1.304 v -1.361 h 0.822 v -0.935 h -0.822 v -2.636 c 0,-0.199 0,-0.312 0.057,-0.369 0.056,-0.056 0.227,-0.085 0.482,-0.085 0.028,0 0.085,0 0.113,0 0.085,0 0.113,0 0.17,0 v -0.964 h -0.652 c -0.595,-0.028 -1.02,0.057 -1.247,0.312 -0.142,0.142 -0.227,0.369 -0.227,0.681 v 3.061 z"
           style="fill:#231f20;fill-opacity:1;fill-rule:evenodd;stroke:none"
           id="path296" /><path
           d="m 212.967,312.604 c 0.198,0.256 0.312,0.624 0.312,1.134 0,0.482 -0.114,0.879 -0.312,1.134 -0.198,0.284 -0.482,0.397 -0.907,0.397 -0.369,0 -0.652,-0.113 -0.851,-0.397 -0.226,-0.255 -0.311,-0.652 -0.311,-1.134 0,-0.51 0.085,-0.878 0.311,-1.134 0.199,-0.283 0.482,-0.425 0.851,-0.425 0.425,0 0.709,0.142 0.907,0.425 z m 1.049,-0.737 c -0.425,-0.51 -1.049,-0.765 -1.928,-0.765 -0.85,0 -1.502,0.255 -1.899,0.765 -0.425,0.511 -0.652,1.134 -0.652,1.871 0,0.709 0.227,1.333 0.652,1.843 0.397,0.567 1.049,0.822 1.899,0.822 0.879,0 1.503,-0.255 1.928,-0.822 0.397,-0.51 0.623,-1.134 0.623,-1.843 0,-0.737 -0.226,-1.36 -0.623,-1.871 z"
           style="fill:#231f20;fill-opacity:1;fill-rule:evenodd;stroke:none"
           id="path298" /><path
           d="m 215.036,315.269 v 0.935 h 0.681 v 1.361 h 1.275 v -1.361 h 0.822 v -0.935 h -0.822 v -2.636 c 0,-0.199 0.028,-0.312 0.085,-0.369 0.057,-0.056 0.227,-0.085 0.482,-0.085 0.057,0 0.085,0 0.142,0 0.028,0 0.085,0 0.113,0 v -0.964 h -0.595 c -0.652,-0.028 -1.077,0.057 -1.276,0.312 -0.17,0.142 -0.226,0.369 -0.226,0.681 v 3.061 z"
           style="fill:#231f20;fill-opacity:1;fill-rule:evenodd;stroke:none"
           id="path300" /><g
           id="g302"><path
             d="m 214.186,132.519 c -0.709,-4.875 -1.389,-7.908 -10.488,-9.751"
             style="fill:none;stroke:#f06a44;stroke-width:0.65195;stroke-linecap:butt;stroke-linejoin:miter;stroke-miterlimit:3.8637;stroke-dasharray:none;stroke-opacity:1"
             id="path304" /></g><g
           id="g306"><path
             d="m 21.6,137.593 174.983,-0.992"
             style="fill:none;stroke:#231f20;stroke-width:0.3118;stroke-linecap:butt;stroke-linejoin:miter;stroke-miterlimit:10;stroke-dasharray:2.97632, 2.97632;stroke-dashoffset:0;stroke-opacity:1"
             id="path308" /></g><g
           id="g310"><path
             d="m 337.209,173.593 c -24.916,59.216 -80.362,91.815 -171.326,79.172"
             style="fill:none;stroke:#a6206a;stroke-width:0.48188;stroke-linecap:round;stroke-linejoin:round;stroke-miterlimit:10;stroke-dasharray:2.97632, 1.64406;stroke-dashoffset:0;stroke-opacity:1"
             id="path312" /></g><g
           id="g314"><path
             d="m 246.586,289.105 -5.329,-6.094"
             style="fill:none;stroke:#2a7196;stroke-width:0.65195;stroke-linecap:round;stroke-linejoin:round;stroke-miterlimit:10;stroke-dasharray:none;stroke-opacity:1"
             id="path316" /></g><path
           d="m 241.824,283.663 1.927,-0.341 v -0.056 l -2.608,-1.361 -2.381,-1.757 1.446,2.608 0.964,2.749 0.056,0.029 z"
           style="fill:#2a7196;fill-opacity:1;fill-rule:evenodd;stroke:none"
           id="path318" /><g
           id="g320"><path
             d="m 196.696,136.374 -35.49,134.079"
             style="fill:none;stroke:#2a7196;stroke-width:1.30391;stroke-linecap:round;stroke-linejoin:round;stroke-miterlimit:10;stroke-dasharray:1.30391, 1.30391, 1.30391, 1.30391;stroke-dashoffset:0;stroke-opacity:1"
             id="path322" /></g><path
           d="m 164.693,270.34 -4.706,4.734 -1.729,-6.435 z"
           style="fill:#2a7196;fill-opacity:1;fill-rule:evenodd;stroke:none"
           id="path324" /><g
           id="g326"><path
             d="m 229.861,136.346 0.936,-7.682"
             style="fill:none;stroke:#ef6a45;stroke-width:0.65195;stroke-linecap:round;stroke-linejoin:round;stroke-miterlimit:10;stroke-dasharray:none;stroke-opacity:1"
             id="path328" /></g><g
           id="g330"><path
             d="m 229.861,136.63 8.901,-1.588"
             style="fill:none;stroke:#ef6a45;stroke-width:0.65195;stroke-linecap:round;stroke-linejoin:round;stroke-miterlimit:10;stroke-dasharray:none;stroke-opacity:1"
             id="path332" /></g><path
           d="m 213.279,123.845 c 0.17,0 0.34,-0.028 0.538,-0.113 0.199,-0.085 0.369,-0.142 0.567,-0.227 0.17,-0.085 0.34,-0.17 0.51,-0.255 0.199,-0.057 0.341,-0.085 0.454,-0.085 0.113,0 0.227,0.028 0.312,0.085 0.085,0.057 0.17,0.113 0.255,0.198 0.085,0.086 0.142,0.171 0.198,0.256 0.057,0.113 0.114,0.198 0.17,0.283 l 0.369,-0.34 c -0.085,-0.113 -0.142,-0.227 -0.227,-0.369 -0.085,-0.113 -0.17,-0.226 -0.283,-0.311 -0.114,-0.114 -0.227,-0.17 -0.369,-0.227 -0.113,-0.057 -0.255,-0.085 -0.425,-0.085 -0.085,0 -0.198,0 -0.283,0.028 -0.142,0.028 -0.256,0.057 -0.369,0.114 -0.113,0.028 -0.227,0.085 -0.34,0.113 -0.113,0.057 -0.199,0.085 -0.284,0.113 -0.141,0.057 -0.255,0.114 -0.396,0.199 -0.114,0.056 -0.256,0.085 -0.397,0.085 -0.114,0 -0.227,-0.029 -0.34,-0.085 -0.085,-0.057 -0.17,-0.114 -0.256,-0.199 -0.085,-0.085 -0.141,-0.198 -0.226,-0.283 -0.057,-0.114 -0.114,-0.199 -0.17,-0.312 l -0.312,0.454 c 0.056,0.085 0.142,0.198 0.227,0.311 0.085,0.114 0.17,0.199 0.283,0.312 0.113,0.085 0.227,0.17 0.369,0.227 0.113,0.085 0.255,0.113 0.425,0.113 z"
           style="fill:#f06a44;fill-opacity:1;fill-rule:evenodd;stroke:none"
           id="path334" /><g
           id="g336"><path
             d="m 212.854,123.732 c -0.142,-0.057 -0.256,-0.142 -0.369,-0.227 -0.113,-0.113 -0.198,-0.198 -0.283,-0.312 -0.085,-0.113 -0.142,-0.226 -0.227,-0.311 l 0.312,-0.454 c 0.056,0.113 0.113,0.198 0.17,0.312 0.085,0.085 0.141,0.17 0.226,0.283 0.086,0.085 0.171,0.142 0.284,0.199 0.085,0.056 0.198,0.085 0.312,0.085 0.141,0 0.283,-0.029 0.397,-0.114 0.141,-0.056 0.283,-0.113 0.396,-0.17 0.085,-0.028 0.171,-0.056 0.284,-0.113 0.113,-0.057 0.227,-0.085 0.34,-0.142 0.113,-0.028 0.227,-0.057 0.369,-0.085 0.113,-0.028 0.198,-0.057 0.283,-0.057 0.17,0 0.312,0.029 0.425,0.114 0.142,0.057 0.255,0.113 0.369,0.227 0.113,0.085 0.198,0.198 0.283,0.311 0.085,0.114 0.17,0.256 0.227,0.369 l -0.369,0.34 c -0.056,-0.085 -0.085,-0.17 -0.17,-0.283 -0.056,-0.085 -0.113,-0.199 -0.198,-0.256 -0.085,-0.085 -0.17,-0.17 -0.255,-0.198 -0.085,-0.057 -0.199,-0.085 -0.312,-0.085 -0.113,0 -0.255,0.028 -0.454,0.085 l -0.51,0.255 c -0.198,0.085 -0.368,0.142 -0.567,0.227 -0.17,0.085 -0.368,0.113 -0.538,0.113 -0.17,0 -0.312,-0.028 -0.425,-0.113 z"
             style="fill:none;stroke:#f06a44;stroke-width:0.65195;stroke-linecap:butt;stroke-linejoin:miter;stroke-miterlimit:3.8637;stroke-dasharray:none;stroke-opacity:1"
             id="path338" /></g><path
           d="m 176.74,314.22 c 0.057,-0.397 0.17,-0.68 0.34,-0.907 0.284,-0.34 0.794,-0.51 1.531,-0.51 0.425,0 0.765,0.057 1.077,0.142 0.51,0.198 0.766,0.51 0.766,1.048 0,0.284 -0.142,0.482 -0.397,0.652 -0.255,0.142 -0.681,0.284 -1.219,0.397 l -0.936,0.199 c -0.907,0.17 -1.53,0.396 -1.899,0.623 -0.567,0.397 -0.85,1.021 -0.879,1.871 0,0.765 0.284,1.389 0.851,1.928 0.567,0.51 1.389,0.765 2.494,0.765 0.907,0.028 1.729,-0.227 2.381,-0.68 0.652,-0.482 0.993,-1.191 1.021,-2.098 h -1.729 c -0.029,0.51 -0.255,0.879 -0.709,1.077 -0.312,0.142 -0.652,0.227 -1.077,0.227 -0.482,-0.028 -0.85,-0.113 -1.134,-0.312 -0.283,-0.17 -0.425,-0.453 -0.425,-0.765 0,-0.312 0.142,-0.539 0.425,-0.709 0.17,-0.085 0.567,-0.198 1.134,-0.34 l 1.559,-0.34 c 0.652,-0.142 1.162,-0.34 1.474,-0.595 0.51,-0.426 0.794,-0.993 0.794,-1.758 0,-0.822 -0.284,-1.474 -0.907,-2.013 -0.596,-0.51 -1.446,-0.765 -2.58,-0.793 -1.134,0 -2.041,0.255 -2.693,0.765 -0.652,0.482 -0.964,1.191 -0.992,2.126 z"
           style="fill:#f6b093;fill-opacity:1;fill-rule:evenodd;stroke:none"
           id="path340" /><path
           d="m 185.499,312.576 c -0.028,0.17 -0.085,0.312 -0.17,0.425 -0.113,0.17 -0.312,0.255 -0.567,0.255 -0.34,0 -0.595,-0.198 -0.765,-0.567 -0.057,-0.17 -0.085,-0.425 -0.085,-0.765 0,-0.283 0.028,-0.539 0.113,-0.709 0.142,-0.34 0.397,-0.51 0.737,-0.51 0.255,0 0.454,0.057 0.539,0.199 0.113,0.141 0.17,0.311 0.198,0.538 h 1.106 c -0.029,-0.312 -0.142,-0.623 -0.34,-0.935 -0.341,-0.482 -0.851,-0.709 -1.503,-0.709 -0.68,0 -1.19,0.17 -1.502,0.567 -0.312,0.397 -0.482,0.907 -0.482,1.531 0,0.708 0.142,1.275 0.51,1.672 0.34,0.397 0.851,0.624 1.446,0.624 0.51,0 0.935,-0.114 1.275,-0.369 0.341,-0.226 0.539,-0.652 0.596,-1.219 z"
           style="fill:#f6b093;fill-opacity:1;fill-rule:evenodd;stroke:none"
           id="path342" /><g
           id="g344"><path
             d="m 337.209,173.593 -94.818,49.096"
             style="fill:none;stroke:#2a7196;stroke-width:0.99211;stroke-linecap:round;stroke-linejoin:round;stroke-miterlimit:10;stroke-dasharray:2.97632, 2.97632;stroke-dashoffset:0;stroke-opacity:1"
             id="path346" /></g><g
           id="g348"><path
             d="m 245.82,212.031 3.572,6.86"
             style="fill:none;stroke:#2a7196;stroke-width:0.65195;stroke-linecap:round;stroke-linejoin:round;stroke-miterlimit:10;stroke-dasharray:none;stroke-opacity:1"
             id="path350" /></g><g
           id="g352"><path
             d="m 245.82,212.031 -6.888,3.572"
             style="fill:none;stroke:#2a7196;stroke-width:0.65195;stroke-linecap:round;stroke-linejoin:round;stroke-miterlimit:10;stroke-dasharray:none;stroke-opacity:1"
             id="path354" /></g><path
           d="m 282.161,151.143 h -0.057 c -0.198,0 -0.17,0 -0.255,-0.283 -0.17,-0.709 -0.34,-1.078 -0.539,-1.248 -0.085,-0.085 -0.141,-0.113 -0.255,-0.141 -0.312,0 -0.368,0.255 -0.368,0.566 0,0.426 0.992,3.912 0.992,4.252 0,0.227 -0.227,0.369 -0.454,0.369 -0.255,0 -0.482,-0.17 -0.595,-0.397 -0.284,0.34 -0.595,0.652 -1.162,0.652 -0.624,0 -1.134,-0.227 -1.588,-0.595 -0.822,-0.596 -1.502,-1.673 -1.644,-2.835 0,-0.085 0,-0.17 0,-0.283 0,-0.624 0.114,-1.078 0.397,-1.474 0.312,-0.397 0.709,-0.709 1.417,-0.709 0.142,0 0.256,0 0.312,0 0.425,0.085 0.851,0.34 1.247,0.737 0.085,0.057 0.085,0.085 0.114,0.057 0,-0.029 0.028,-0.085 0.057,-0.17 0.198,-0.369 0.595,-0.624 1.162,-0.624 0.198,0 0.198,0 0.312,0.028 0.141,0.057 0.255,0.114 0.425,0.255 0.283,0.312 0.482,0.766 0.68,1.531 0.028,0.114 0.057,0.142 0.057,0.199 0,0.113 -0.057,0.113 -0.255,0.113 z m -4.819,-0.624 c 0,0.114 0.028,0.227 0.028,0.312 0.057,0.482 0.34,1.644 0.51,2.154 0.255,0.652 0.794,1.446 1.531,1.446 0.397,0 0.652,-0.198 0.822,-0.538 0.057,-0.114 0.142,-0.341 0.142,-0.454 0,-0.142 -0.652,-2.806 -0.681,-2.863 -0.056,-0.113 -0.51,-0.624 -0.737,-0.794 -0.283,-0.198 -0.566,-0.311 -0.822,-0.311 -0.538,0 -0.793,0.453 -0.793,1.048 z"
           style="fill:#2a7196;fill-opacity:1;fill-rule:evenodd;stroke:none"
           id="path356" /><path
           d="m 282.926,150.576 -0.34,0.085 v 0.142 h 0.85 v -0.17 c 0.085,0.085 0.199,0.141 0.369,0.198 0.141,0.029 0.283,0.057 0.453,0.057 0.369,0 0.681,-0.142 0.879,-0.397 0.198,-0.255 0.312,-0.652 0.312,-1.134 0,-0.51 -0.114,-0.907 -0.34,-1.19 -0.227,-0.256 -0.567,-0.397 -0.992,-0.397 -0.227,0 -0.454,0.028 -0.681,0.056 0,-0.141 0.029,-0.255 0.029,-0.34 v -0.822 l 0.51,-0.085 v -0.142 h -1.418 v 0.142 l 0.369,0.085 z m 1.956,-1.219 c 0,0.397 -0.057,0.709 -0.199,0.907 -0.141,0.199 -0.34,0.284 -0.595,0.284 -0.255,0 -0.453,-0.029 -0.623,-0.085 v -2.381 c 0.17,-0.057 0.396,-0.057 0.623,-0.057 0.51,0 0.794,0.425 0.794,1.332 z"
           style="fill:#2a7196;fill-opacity:1;fill-rule:evenodd;stroke:none"
           id="path358" /><path
           d="m 209.367,197.206 h 0.198 c 0.255,0 0.227,0.028 0.284,0.17 0.198,0.709 0.794,1.502 1.644,1.502 0.425,0 0.652,-0.255 0.652,-0.68 0,-0.142 -0.028,-0.312 -0.057,-0.538 -0.142,-0.397 -0.623,-2.722 -0.907,-3.204 -0.227,-0.396 -0.51,-0.595 -0.822,-0.595 -0.085,0 -0.255,0.028 -0.34,0.057 -0.057,0.028 -0.199,0.113 -0.199,0.113 0,0 0.029,0.029 0.029,0.029 0.028,0 0.113,0.028 0.17,0.085 0.255,0.113 0.482,0.368 0.482,0.708 0,0.369 -0.227,0.567 -0.567,0.567 -0.539,0 -0.851,-0.453 -0.851,-0.964 0,-0.198 0.029,-0.368 0.114,-0.538 0.198,-0.312 0.538,-0.539 1.105,-0.539 0.199,0 0.227,0 0.341,0.029 0.396,0.141 0.737,0.396 0.992,0.793 0.255,-0.453 0.708,-0.85 1.389,-0.85 0.595,0 0.963,0.198 1.332,0.51 0.397,0.34 0.765,0.85 0.935,1.417 0,0.085 0.029,0.114 0.029,0.17 0,0.086 -0.085,0.086 -0.255,0.086 -0.227,0 -0.256,0 -0.312,-0.171 -0.17,-0.68 -0.822,-1.502 -1.616,-1.502 -0.397,0 -0.68,0.255 -0.68,0.68 0,0.114 0.028,0.284 0.056,0.397 0.029,0.227 0.709,2.892 0.737,3.033 0.17,0.426 0.454,0.766 0.766,0.879 0.056,0.028 0.085,0.028 0.255,0.028 0.17,0 0.255,0 0.368,-0.085 0.085,-0.028 0.142,-0.056 0.142,-0.085 -0.34,-0.113 -0.652,-0.368 -0.652,-0.822 0,-0.34 0.227,-0.538 0.567,-0.538 0.51,0 0.85,0.425 0.85,0.963 0,0.596 -0.481,1.078 -1.218,1.078 -0.426,0 -0.822,-0.199 -1.134,-0.567 -0.114,-0.085 -0.142,-0.17 -0.199,-0.284 -0.226,0.482 -0.793,0.851 -1.445,0.851 -0.085,0 -0.17,0 -0.256,-0.029 -0.623,-0.085 -1.19,-0.482 -1.587,-1.077 -0.17,-0.283 -0.368,-0.737 -0.397,-0.935 0,-0.085 0.029,-0.114 0.057,-0.142 z"
           style="fill:#2a7196;fill-opacity:1;fill-rule:evenodd;stroke:none"
           id="path360" /><path
           d="m 218.154,193.266 c 0,-1.077 -0.482,-1.616 -1.445,-1.616 -0.454,0 -0.794,0.142 -1.049,0.425 -0.227,0.255 -0.34,0.681 -0.34,1.191 0,0.51 0.113,0.907 0.34,1.19 0.255,0.284 0.595,0.397 1.077,0.397 0.454,0 0.822,-0.113 1.049,-0.397 0.255,-0.255 0.368,-0.652 0.368,-1.19 z m -0.595,0 c 0,0.482 -0.057,0.822 -0.198,1.02 -0.142,0.227 -0.369,0.312 -0.652,0.312 -0.284,0 -0.482,-0.085 -0.624,-0.283 -0.113,-0.227 -0.17,-0.567 -0.17,-1.049 0,-0.482 0.057,-0.851 0.17,-1.049 0.142,-0.198 0.34,-0.312 0.624,-0.312 0.283,0 0.51,0.114 0.652,0.312 0.141,0.227 0.198,0.567 0.198,1.049 z"
           style="fill:#2a7196;fill-opacity:1;fill-rule:evenodd;stroke:none"
           id="path362" /><path
           d="m 220.904,193.322 c 0,0.426 -0.057,0.709 -0.198,0.908 -0.142,0.198 -0.369,0.283 -0.652,0.283 -0.142,0 -0.256,0 -0.397,-0.028 -0.114,-0.029 -0.199,-0.029 -0.255,-0.057 v -2.438 c 0.17,-0.028 0.396,-0.056 0.652,-0.056 0.283,0 0.51,0.113 0.652,0.34 0.141,0.255 0.198,0.595 0.198,1.048 z m -2.069,2.807 -0.426,0.085 v 0.142 h 0.993 v -1.106 c 0,-0.113 -0.029,-0.312 -0.029,-0.624 0.227,0.171 0.482,0.256 0.822,0.256 0.425,0 0.737,-0.142 0.964,-0.397 0.227,-0.255 0.34,-0.624 0.34,-1.163 0,-0.538 -0.142,-0.963 -0.368,-1.247 -0.255,-0.283 -0.596,-0.425 -1.077,-0.425 -0.171,0 -0.397,0.028 -0.624,0.057 -0.227,0.056 -0.425,0.113 -0.595,0.17 z"
           style="fill:#2a7196;fill-opacity:1;fill-rule:evenodd;stroke:none"
           id="path364" /><path
           d="m 224.107,192.585 c 0,-0.311 -0.085,-0.538 -0.283,-0.708 -0.199,-0.142 -0.482,-0.227 -0.851,-0.227 -0.17,0 -0.312,0.028 -0.51,0.057 -0.17,0.028 -0.34,0.056 -0.425,0.085 v 0.765 h 0.142 l 0.17,-0.425 c 0.141,-0.142 0.368,-0.227 0.623,-0.227 0.425,0 0.624,0.17 0.624,0.539 0,0.283 -0.142,0.453 -0.482,0.567 l -0.284,0.113 c -0.226,0.057 -0.396,0.142 -0.481,0.198 -0.114,0.086 -0.199,0.171 -0.256,0.284 -0.028,0.113 -0.056,0.227 -0.056,0.397 0,0.255 0.085,0.482 0.255,0.623 0.198,0.171 0.453,0.227 0.765,0.227 0.227,0 0.482,-0.028 0.822,-0.085 v -0.68 h -0.141 l -0.142,0.368 c -0.114,0.085 -0.284,0.142 -0.539,0.142 -0.17,0 -0.312,-0.028 -0.397,-0.113 -0.113,-0.085 -0.141,-0.227 -0.141,-0.369 0,-0.113 0.028,-0.227 0.113,-0.312 0.085,-0.085 0.227,-0.141 0.397,-0.198 0.312,-0.113 0.51,-0.198 0.624,-0.255 0.085,-0.057 0.17,-0.114 0.255,-0.17 0.056,-0.085 0.113,-0.17 0.141,-0.255 0.057,-0.085 0.057,-0.199 0.057,-0.341 z"
           style="fill:#2a7196;fill-opacity:1;fill-rule:evenodd;stroke:none"
           id="path366" /><g
           id="g368"><path
             d="m 197.518,136.686 44.589,85.947"
             style="fill:none;stroke:#2a7196;stroke-width:0.99211;stroke-linecap:round;stroke-linejoin:round;stroke-miterlimit:10;stroke-dasharray:none;stroke-opacity:1"
             id="path370" /></g></g></g></g></svg>
