<svg id="Ebene_1" data-name="Ebene 1" xmlns="http://www.w3.org/2000/svg" viewBox="0 0 841.89 595.276"><defs><style>.cls-1{fill:#fff;}</style></defs><title>signet_ude_rgb_neg</title><path class="cls-1" d="M500.566,376.836H335.134V218.44h158.4v31.05a2.05,2.05,0,0,0,1.33,1.919l6.527,2.447a.611.611,0,0,0,.215.041.6.6,0,0,0,.6-.6V214.1a4.336,4.336,0,0,0-4.336-4.336H330.8a4.336,4.336,0,0,0-4.336,4.336V381.172a4.337,4.337,0,0,0,4.336,4.336H500.566a1.639,1.639,0,0,0,1.639-1.639v-5.4A1.638,1.638,0,0,0,500.566,376.836Z"/><path class="cls-1" d="M400.746,328.338c0,14.137-4.934,23.625-22.865,23.625s-22.866-9.488-22.866-23.625V287.349c0-1.707.379-1.992,1.992-1.992h8.823c1.614,0,1.994.285,1.994,1.992v40.989c0,6.831.474,13.378,10.057,13.378s10.057-6.547,10.057-13.378V287.349c0-1.707.379-1.992,1.992-1.992h8.824c1.613,0,1.992.285,1.992,1.992Z"/><path class="cls-1" d="M436.229,285.357c18.121,0,27.61,5.883,27.61,32.165,0,27.23-11.007,32.828-27.895,32.828H421.427c-1.612,0-1.992-.38-1.992-1.993V287.349c0-1.707.38-1.992,2.087-1.992Zm-.57,54.745c10.722,0,14.707-4.649,14.707-22.771,0-16.982-4.08-21.727-14.707-21.727h-3.415v44.5Z"/><path class="cls-1" d="M515.048,348.357c0,1.708-.284,1.993-1.9,1.993H481.936c-1.613,0-1.993-.285-1.993-1.993V287.349c0-1.707.38-1.992,1.993-1.992h31.12c1.9,0,2.372.19,2.372,1.044a4.188,4.188,0,0,1-.285,1.329l-1.8,6.356a1.936,1.936,0,0,1-2.183,1.518H492.751v15.655h16.131c1.707,0,1.992.285,1.992,1.993v6.262c0,1.708-.38,1.992-1.992,1.992H492.751v18.6h20.305c1.708,0,1.992.286,1.992,1.993Z"/></svg>